<svg aria-hidden="true" style="position: absolute; width: 0; height: 0; overflow: hidden;" version="1.1" xmlns="http://www.w3.org/2000/svg" xmlns:xlink="http://www.w3.org/1999/xlink">
<defs>
<symbol id="icon-align-center" viewBox="0 0 28 28">
<path d="M28 21v2c0 0.547-0.453 1-1 1h-26c-0.547 0-1-0.453-1-1v-2c0-0.547 0.453-1 1-1h26c0.547 0 1 0.453 1 1zM22 15v2c0 0.547-0.453 1-1 1h-14c-0.547 0-1-0.453-1-1v-2c0-0.547 0.453-1 1-1h14c0.547 0 1 0.453 1 1zM26 9v2c0 0.547-0.453 1-1 1h-22c-0.547 0-1-0.453-1-1v-2c0-0.547 0.453-1 1-1h22c0.547 0 1 0.453 1 1zM20 3v2c0 0.547-0.453 1-1 1h-10c-0.547 0-1-0.453-1-1v-2c0-0.547 0.453-1 1-1h10c0.547 0 1 0.453 1 1z"></path>
</symbol>
<symbol id="icon-align-right" viewBox="0 0 28 28">
<path d="M28 21v2c0 0.547-0.453 1-1 1h-26c-0.547 0-1-0.453-1-1v-2c0-0.547 0.453-1 1-1h26c0.547 0 1 0.453 1 1zM28 15v2c0 0.547-0.453 1-1 1h-20c-0.547 0-1-0.453-1-1v-2c0-0.547 0.453-1 1-1h20c0.547 0 1 0.453 1 1zM28 9v2c0 0.547-0.453 1-1 1h-24c-0.547 0-1-0.453-1-1v-2c0-0.547 0.453-1 1-1h24c0.547 0 1 0.453 1 1zM28 3v2c0 0.547-0.453 1-1 1h-18c-0.547 0-1-0.453-1-1v-2c0-0.547 0.453-1 1-1h18c0.547 0 1 0.453 1 1z"></path>
</symbol>
<symbol id="icon-align-justify" viewBox="0 0 28 28">
<path d="M28 21v2c0 0.547-0.453 1-1 1h-26c-0.547 0-1-0.453-1-1v-2c0-0.547 0.453-1 1-1h26c0.547 0 1 0.453 1 1zM28 15v2c0 0.547-0.453 1-1 1h-26c-0.547 0-1-0.453-1-1v-2c0-0.547 0.453-1 1-1h26c0.547 0 1 0.453 1 1zM28 9v2c0 0.547-0.453 1-1 1h-26c-0.547 0-1-0.453-1-1v-2c0-0.547 0.453-1 1-1h26c0.547 0 1 0.453 1 1zM28 3v2c0 0.547-0.453 1-1 1h-26c-0.547 0-1-0.453-1-1v-2c0-0.547 0.453-1 1-1h26c0.547 0 1 0.453 1 1z"></path>
</symbol>
<symbol id="icon-chevron-up" viewBox="0 0 28 28">
<path d="M26.297 20.797l-2.594 2.578c-0.391 0.391-1.016 0.391-1.406 0l-8.297-8.297-8.297 8.297c-0.391 0.391-1.016 0.391-1.406 0l-2.594-2.578c-0.391-0.391-0.391-1.031 0-1.422l11.594-11.578c0.391-0.391 1.016-0.391 1.406 0l11.594 11.578c0.391 0.391 0.391 1.031 0 1.422z"></path>
</symbol>
<symbol id="icon-chevron-down" viewBox="0 0 28 28">
<path d="M26.297 12.625l-11.594 11.578c-0.391 0.391-1.016 0.391-1.406 0l-11.594-11.578c-0.391-0.391-0.391-1.031 0-1.422l2.594-2.578c0.391-0.391 1.016-0.391 1.406 0l8.297 8.297 8.297-8.297c0.391-0.391 1.016-0.391 1.406 0l2.594 2.578c0.391 0.391 0.391 1.031 0 1.422z"></path>
</symbol>
<symbol id="icon-bars" viewBox="0 0 24 28">
<path d="M24 21v2c0 0.547-0.453 1-1 1h-22c-0.547 0-1-0.453-1-1v-2c0-0.547 0.453-1 1-1h22c0.547 0 1 0.453 1 1zM24 13v2c0 0.547-0.453 1-1 1h-22c-0.547 0-1-0.453-1-1v-2c0-0.547 0.453-1 1-1h22c0.547 0 1 0.453 1 1zM24 5v2c0 0.547-0.453 1-1 1h-22c-0.547 0-1-0.453-1-1v-2c0-0.547 0.453-1 1-1h22c0.547 0 1 0.453 1 1z"></path>
</symbol>
<symbol id="icon-hand-paper-o" viewBox="0 0 26 28">
<path d="M13.75 2c-0.969 0-1.75 0.781-1.75 1.75v10.25h-0.5v-8.25c0-0.969-0.781-1.75-1.75-1.75s-1.75 0.781-1.75 1.75v12.25l-2.406-3.203c-0.375-0.5-0.969-0.797-1.594-0.797-1.109 0-2 0.906-2 2 0 0.438 0.141 0.859 0.406 1.203l6 8c0.375 0.5 0.969 0.797 1.594 0.797h10.75c0.719 0 1.344-0.516 1.484-1.219l1.188-6.328c0.047-0.297 0.078-0.609 0.078-0.922v-7.781c0-0.969-0.781-1.75-1.75-1.75s-1.75 0.781-1.75 1.75v4.25h-0.5v-8.25c0-0.969-0.781-1.75-1.75-1.75s-1.75 0.781-1.75 1.75v8.25h-0.5v-10.25c0-0.969-0.781-1.75-1.75-1.75zM13.75 0c1.406 0 2.703 0.797 3.344 2.063 0.219-0.047 0.438-0.063 0.656-0.063 2.063 0 3.75 1.687 3.75 3.75v0.266c2.172-0.125 4 1.547 4 3.734v7.781c0 0.438-0.047 0.875-0.125 1.297l-1.188 6.312c-0.297 1.656-1.75 2.859-3.437 2.859h-10.75c-1.25 0-2.453-0.609-3.203-1.594l-6-8c-0.516-0.688-0.797-1.547-0.797-2.406 0-2.203 1.781-4 4-4 0.656 0 1.453 0.156 2 0.531v-6.781c0-2.063 1.687-3.75 3.75-3.75 0.219 0 0.438 0.016 0.656 0.063 0.641-1.266 1.937-2.063 3.344-2.063z"></path>
</symbol>
<symbol id="icon-hand-scissors-o" viewBox="0 0 28 28">
<path d="M16.766 26h-2.766c-1.625 0-2.859-0.703-3.531-2.203-0.234-0.5-0.359-1.047-0.359-1.594v-0.078c-1.281-0.625-2.109-1.937-2.109-3.375 0-0.172 0-0.594 0.078-0.75h-4.078c-2.203 0-4-1.797-4-4s1.797-4 4-4h1.766l-0.688-0.266c-1.547-0.578-2.578-2.078-2.578-3.734 0-2.203 1.797-4 4-4 0.484 0 0.969 0.094 1.422 0.266l9.812 3.734h6.266c2.203 0 4 1.797 4 4v10.437c0 1.844-1.25 3.437-3.031 3.875l-5.297 1.328c-0.938 0.234-1.922 0.359-2.906 0.359zM16 14.891l-2.422 1.109-2.547 1.156c-0.625 0.281-1.031 0.906-1.031 1.594 0 0.969 0.781 1.75 1.75 1.75 0.25 0 0.5-0.047 0.719-0.156l5.281-2.406c-1.016-0.219-1.75-1.141-1.75-2.188v-0.859zM21 19.75c0-0.969-0.781-1.75-1.75-1.75-0.25 0-0.5 0.047-0.719 0.156l-4.531 2.063c-0.938 0.422-1.891 0.797-1.891 1.984 0 1.031 0.719 1.781 1.766 1.781 0.187 0 0.438-0.063 0.594-0.141l5.5-2.5c0.625-0.281 1.031-0.906 1.031-1.594zM17.375 8l-10.156-3.875c-0.234-0.078-0.469-0.125-0.719-0.125-1.094 0-2 0.891-2 2 0 0.828 0.516 1.578 1.281 1.875l8.219 3.125v1h-10c-1.109 0-2 0.891-2 2s0.891 2 2 2h8.359l3.641-1.656v-3.094c0-0.625 0.266-1.234 0.719-1.656l1.734-1.594h-1.078zM16.766 24c0.812 0 1.641-0.094 2.422-0.297l5.297-1.328c0.891-0.219 1.516-1.016 1.516-1.937v-10.437c0-1.109-0.891-2-2-2h-4.813l-2.125 1.969c-0.359 0.328-0.562 0.797-0.562 1.281v4.625c0 0.969 0.797 1.687 1.75 1.687 0.969 0 1.75-0.859 1.75-1.813v-3.25h0.5v3.25c0 0.703-0.344 1.359-0.891 1.781 1.094 0.172 1.891 1.125 1.891 2.219 0 0.875-0.516 1.687-1.313 2.047l-4.844 2.203h1.422z"></path>
</symbol>
<symbol id="icon-hand-lizard-o" viewBox="0 0 32 28">
<path d="M17.984 0c1.266 0 2.484 0.609 3.234 1.641l8.937 12.203c1.203 1.625 1.844 3.578 1.844 5.609v5.547c0 1.656-1.344 3-3 3h-6c-1.656 0-3-1.344-3-3v-2.766l-4.469-2.234h-8.531c-1.656 0-3-1.344-3-3v-0.5c0-2.484 2.016-4.5 4.5-4.5h6.563l0.656-2h-10.719c-2.078 0-3.813-1.594-3.984-3.656-0.656-0.797-1.016-1.813-1.016-2.844v-0.5c0-1.656 1.344-3 3-3h14.984zM30 25v-5.547c0-1.578-0.516-3.156-1.453-4.438l-8.953-12.203c-0.375-0.5-0.969-0.812-1.609-0.812h-14.984c-0.547 0-1 0.453-1 1 0 0.828 0.016 1.406 0.562 2.078 0.203-0.641 0.781-1.078 1.437-1.078h13v0.5h-13c-0.547 0-1 0.453-1 1 0 0.297-0.016 0.609 0.047 0.906 0.172 0.922 1.016 1.594 1.953 1.594h11.422c0.828 0 1.5 0.672 1.5 1.5 0 0.156-0.031 0.328-0.078 0.469l-1 3c-0.203 0.609-0.781 1.031-1.422 1.031h-6.922c-1.375 0-2.5 1.125-2.5 2.5v0.5c0 0.547 0.453 1 1 1h8.766c0.156 0 0.313 0.031 0.453 0.109l4.953 2.469c0.5 0.266 0.828 0.781 0.828 1.344v3.078c0 0.547 0.453 1 1 1h6c0.547 0 1-0.453 1-1z"></path>
</symbol>
<symbol id="icon-hand-spock-o" viewBox="0 0 30 28">
<path d="M7.172 28c-1.609 0-3-1.094-3.391-2.656l-1.578-6.266c-0.125-0.547-0.203-1.125-0.203-1.687 0-0.359 0-0.703-0.078-1.047l-1.813-7.453c-0.078-0.297-0.109-0.594-0.109-0.891 0-1.937 1.469-3.531 3.391-3.734 0.344-1.766 1.859-3.016 3.672-3.016 1.734 0 3.234 1.188 3.641 2.875l1.297 5.437 1.609-6.687c0.406-1.687 1.906-2.875 3.641-2.875 1.859 0 3.391 1.344 3.687 3.156 1.922 0.219 3.313 1.844 3.313 3.766 0 0.297-0.047 0.609-0.109 0.922l-1.922 8c1.25-0.938 2.156-1.844 3.797-1.844 2.172 0 3.984 1.766 3.984 3.953 0 1.313-0.641 2.531-1.672 3.313l-7.922 5.938c-0.688 0.516-1.531 0.797-2.391 0.797h-10.844zM17.25 2c-0.797 0-1.5 0.562-1.687 1.344l-2.562 10.656h-1.984l-2.266-9.406c-0.187-0.781-0.891-1.344-1.687-1.344-1 0-1.75 0.797-1.75 1.766 0 0.156 0.016 0.297 0.047 0.438l2.063 8.547h-0.406l-1.547-6.375c-0.187-0.766-0.891-1.375-1.703-1.375-0.969 0-1.766 0.781-1.766 1.75 0 0.141 0.016 0.281 0.047 0.406l1.813 7.469c0.219 0.906 0.063 1.813 0.297 2.719l1.563 6.266c0.172 0.672 0.766 1.141 1.453 1.141h10.844c0.422 0 0.844-0.141 1.188-0.406l7.922-5.922c0.531-0.406 0.875-1.047 0.875-1.719 0-1.094-0.906-1.953-1.984-1.953-0.438 0-0.859 0.141-1.203 0.406l-4.797 3.594v-3.547c0-0.125 2.016-8.406 2.172-9.078 0.031-0.141 0.063-0.297 0.063-0.453 0-0.969-0.734-1.797-1.734-1.797-0.812 0-1.516 0.562-1.703 1.344l-1.813 7.531h-0.406l2.344-9.75c0.031-0.141 0.047-0.297 0.047-0.438 0-0.984-0.719-1.813-1.734-1.813z"></path>
</symbol>
<symbol id="icon-hand-pointer-o" viewBox="0 0 26 28">
<path d="M10 2c-1.109 0-2 0.891-2 2v14l-2.359-3.156c-0.391-0.516-1.016-0.844-1.672-0.844-1.094 0-1.969 0.922-1.969 2 0 0.438 0.141 0.859 0.406 1.203l6 8c0.375 0.5 0.969 0.797 1.594 0.797h11.219c0.453 0 0.859-0.313 0.969-0.75l1.437-5.75c0.25-1 0.375-2.016 0.375-3.031v-3.391c0-0.828-0.641-1.578-1.5-1.578-0.828 0-1.5 0.672-1.5 1.5h-0.5v-0.953c0-0.984-0.75-1.797-1.75-1.797-0.969 0-1.75 0.781-1.75 1.75v1h-0.5v-1.406c0-1.125-0.859-2.094-2-2.094-1.109 0-2 0.891-2 2v1.5h-0.5v-8.906c0-1.125-0.859-2.094-2-2.094zM10 0c2.234 0 4 1.875 4 4.094v3.437c0.172-0.016 0.328-0.031 0.5-0.031 1.016 0 1.969 0.391 2.703 1.078 0.484-0.219 1.016-0.328 1.547-0.328 1.125 0 2.172 0.5 2.875 1.359 0.297-0.078 0.578-0.109 0.875-0.109 1.969 0 3.5 1.641 3.5 3.578v3.391c0 1.172-0.141 2.359-0.438 3.516l-1.437 5.75c-0.328 1.328-1.531 2.266-2.906 2.266h-11.219c-1.25 0-2.453-0.609-3.203-1.594l-6-8c-0.516-0.688-0.797-1.547-0.797-2.406 0-2.188 1.781-4 3.969-4 0.719 0 1.422 0.187 2.031 0.547v-8.547c0-2.203 1.797-4 4-4zM12 22v-6h-0.5v6h0.5zM16 22v-6h-0.5v6h0.5zM20 22v-6h-0.5v6h0.5z"></path>
</symbol>
<symbol id="icon-hand-peace-o" viewBox="0 0 24 28">
<path d="M20.125 10.109c0.578 0 1.156 0.109 1.672 0.359 1.5 0.672 2.203 1.906 2.203 3.531v2.766c0 0.984-0.125 1.969-0.359 2.906l-1.328 5.297c-0.438 1.781-2.031 3.031-3.875 3.031h-10.437c-2.203 0-4-1.797-4-4v-6.266l-3.734-9.812c-0.172-0.453-0.266-0.938-0.266-1.422 0-2.203 1.797-4 4-4 1.656 0 3.156 1.031 3.734 2.578l0.266 0.688v-1.766c0-2.203 1.797-4 4-4s4 1.797 4 4v4.078c0.25-0.047 0.5-0.078 0.75-0.078 1.437 0 2.75 0.828 3.375 2.109zM16.75 10c-0.688 0-1.313 0.406-1.594 1.031l-1.156 2.547-1.109 2.422h0.859c1.047 0 1.969 0.734 2.188 1.75l2.406-5.281c0.109-0.219 0.156-0.469 0.156-0.719 0-0.969-0.781-1.75-1.75-1.75zM20.203 12.109c-1.188 0-1.563 0.953-1.984 1.891l-2.063 4.531c-0.109 0.219-0.156 0.469-0.156 0.719 0 0.969 0.781 1.75 1.75 1.75 0.688 0 1.313-0.406 1.594-1.031l2.5-5.5c0.078-0.156 0.141-0.406 0.141-0.594 0-1.047-0.75-1.766-1.781-1.766zM2 6.5c0 0.25 0.047 0.484 0.125 0.719l3.875 10.156v1.078l1.594-1.734c0.422-0.453 1.031-0.719 1.656-0.719h3.094l1.656-3.641v-8.359c0-1.109-0.891-2-2-2s-2 0.891-2 2v10h-1l-3.125-8.219c-0.297-0.766-1.047-1.281-1.875-1.281-1.109 0-2 0.906-2 2zM18.438 26c0.922 0 1.719-0.625 1.937-1.516l1.328-5.297c0.203-0.781 0.297-1.609 0.297-2.422v-1.422l-2.203 4.844c-0.359 0.797-1.172 1.313-2.047 1.313-1.094 0-2.047-0.797-2.219-1.891-0.422 0.547-1.078 0.891-1.781 0.891h-3.25v-0.5h3.25c0.953 0 1.813-0.781 1.813-1.75 0-0.953-0.719-1.75-1.687-1.75h-4.625c-0.484 0-0.953 0.203-1.281 0.562l-1.969 2.125v4.813c0 1.109 0.891 2 2 2h10.437z"></path>
</symbol>
<symbol id="icon-stopwatch" viewBox="0 0 32 32">
<path d="M16 6.038v-2.038h4v-2c0-1.105-0.895-2-2-2h-6c-1.105 0-2 0.895-2 2v2h4v2.038c-6.712 0.511-12 6.119-12 12.962 0 7.18 5.82 13 13 13s13-5.82 13-13c0-6.843-5.288-12.451-12-12.962zM22.071 26.071c-1.889 1.889-4.4 2.929-7.071 2.929s-5.182-1.040-7.071-2.929c-1.889-1.889-2.929-4.4-2.929-7.071s1.040-5.182 2.929-7.071c1.814-1.814 4.201-2.844 6.754-2.923l-0.677 9.813c-0.058 0.822 0.389 1.181 0.995 1.181s1.053-0.36 0.995-1.181l-0.677-9.813c2.552 0.079 4.94 1.11 6.754 2.923 1.889 1.889 2.929 4.4 2.929 7.071s-1.040 5.182-2.929 7.071z"></path>
</symbol>
<symbol id="icon-bubble" viewBox="0 0 32 32">
<path d="M16 2c8.837 0 16 5.82 16 13s-7.163 13-16 13c-0.849 0-1.682-0.054-2.495-0.158-3.437 3.437-7.539 4.053-11.505 4.144v-0.841c2.142-1.049 4-2.961 4-5.145 0-0.305-0.024-0.604-0.068-0.897-3.619-2.383-5.932-6.024-5.932-10.103 0-7.18 7.163-13 16-13z"></path>
</symbol>
<symbol id="icon-instagram" viewBox="0 0 32 32">
<path d="M16 2.881c4.275 0 4.781 0.019 6.462 0.094 1.563 0.069 2.406 0.331 2.969 0.55 0.744 0.288 1.281 0.638 1.837 1.194 0.563 0.563 0.906 1.094 1.2 1.838 0.219 0.563 0.481 1.412 0.55 2.969 0.075 1.688 0.094 2.194 0.094 6.463s-0.019 4.781-0.094 6.463c-0.069 1.563-0.331 2.406-0.55 2.969-0.288 0.744-0.637 1.281-1.194 1.837-0.563 0.563-1.094 0.906-1.837 1.2-0.563 0.219-1.413 0.481-2.969 0.55-1.688 0.075-2.194 0.094-6.463 0.094s-4.781-0.019-6.463-0.094c-1.563-0.069-2.406-0.331-2.969-0.55-0.744-0.288-1.281-0.637-1.838-1.194-0.563-0.563-0.906-1.094-1.2-1.837-0.219-0.563-0.481-1.413-0.55-2.969-0.075-1.688-0.094-2.194-0.094-6.463s0.019-4.781 0.094-6.463c0.069-1.563 0.331-2.406 0.55-2.969 0.288-0.744 0.638-1.281 1.194-1.838 0.563-0.563 1.094-0.906 1.838-1.2 0.563-0.219 1.412-0.481 2.969-0.55 1.681-0.075 2.188-0.094 6.463-0.094zM16 0c-4.344 0-4.887 0.019-6.594 0.094-1.7 0.075-2.869 0.35-3.881 0.744-1.056 0.412-1.95 0.956-2.837 1.85-0.894 0.888-1.438 1.781-1.85 2.831-0.394 1.019-0.669 2.181-0.744 3.881-0.075 1.713-0.094 2.256-0.094 6.6s0.019 4.887 0.094 6.594c0.075 1.7 0.35 2.869 0.744 3.881 0.413 1.056 0.956 1.95 1.85 2.837 0.887 0.887 1.781 1.438 2.831 1.844 1.019 0.394 2.181 0.669 3.881 0.744 1.706 0.075 2.25 0.094 6.594 0.094s4.888-0.019 6.594-0.094c1.7-0.075 2.869-0.35 3.881-0.744 1.050-0.406 1.944-0.956 2.831-1.844s1.438-1.781 1.844-2.831c0.394-1.019 0.669-2.181 0.744-3.881 0.075-1.706 0.094-2.25 0.094-6.594s-0.019-4.887-0.094-6.594c-0.075-1.7-0.35-2.869-0.744-3.881-0.394-1.063-0.938-1.956-1.831-2.844-0.887-0.887-1.781-1.438-2.831-1.844-1.019-0.394-2.181-0.669-3.881-0.744-1.712-0.081-2.256-0.1-6.6-0.1v0z"></path>
<path d="M16 7.781c-4.537 0-8.219 3.681-8.219 8.219s3.681 8.219 8.219 8.219 8.219-3.681 8.219-8.219c0-4.537-3.681-8.219-8.219-8.219zM16 21.331c-2.944 0-5.331-2.387-5.331-5.331s2.387-5.331 5.331-5.331c2.944 0 5.331 2.387 5.331 5.331s-2.387 5.331-5.331 5.331z"></path>
<path d="M26.462 7.456c0 1.060-0.859 1.919-1.919 1.919s-1.919-0.859-1.919-1.919c0-1.060 0.859-1.919 1.919-1.919s1.919 0.859 1.919 1.919z"></path>
</symbol>
<symbol id="icon-sun" viewBox="0 0 32 32">
<path d="M16 9c-3.859 0-7 3.141-7 7s3.141 7 7 7 7-3.141 7-7c0-3.859-3.141-7-7-7zM16 21c-2.762 0-5-2.238-5-5s2.238-5 5-5 5 2.238 5 5-2.238 5-5 5zM16 7c0.552 0 1-0.448 1-1v-2c0-0.552-0.448-1-1-1s-1 0.448-1 1v2c0 0.552 0.448 1 1 1zM16 25c-0.552 0-1 0.448-1 1v2c0 0.552 0.448 1 1 1s1-0.448 1-1v-2c0-0.552-0.448-1-1-1zM23.777 9.635l1.414-1.414c0.391-0.391 0.391-1.023 0-1.414s-1.023-0.391-1.414 0l-1.414 1.414c-0.391 0.391-0.391 1.023 0 1.414s1.023 0.391 1.414 0zM8.223 22.365l-1.414 1.414c-0.391 0.391-0.391 1.023 0 1.414s1.023 0.391 1.414 0l1.414-1.414c0.391-0.392 0.391-1.023 0-1.414s-1.023-0.392-1.414 0zM7 16c0-0.552-0.448-1-1-1h-2c-0.552 0-1 0.448-1 1s0.448 1 1 1h2c0.552 0 1-0.448 1-1zM28 15h-2c-0.552 0-1 0.448-1 1s0.448 1 1 1h2c0.552 0 1-0.448 1-1s-0.448-1-1-1zM8.221 9.635c0.391 0.391 1.024 0.391 1.414 0s0.391-1.023 0-1.414l-1.414-1.414c-0.391-0.391-1.023-0.391-1.414 0s-0.391 1.023 0 1.414l1.414 1.414zM23.779 22.363c-0.392-0.391-1.023-0.391-1.414 0s-0.392 1.023 0 1.414l1.414 1.414c0.391 0.391 1.023 0.391 1.414 0s0.391-1.023 0-1.414l-1.414-1.414z"></path>
</symbol>
<symbol id="icon-moon" viewBox="0 0 32 32">
<path d="M21.866 21.447c-3.117 3.12-8.193 3.12-11.313 0s-3.12-8.195 0-11.314c0.826-0.824 1.832-1.453 2.989-1.863 0.365-0.128 0.768-0.035 1.039 0.237 0.274 0.273 0.366 0.677 0.237 1.039-0.784 2.211-0.25 4.604 1.391 6.245 1.638 1.639 4.031 2.172 6.245 1.391 0.362-0.129 0.767-0.036 1.039 0.237 0.273 0.271 0.365 0.676 0.236 1.039-0.408 1.157-1.038 2.164-1.863 2.989zM11.967 11.547c-2.34 2.34-2.34 6.147 0 8.486 2.5 2.501 6.758 2.276 8.937-0.51-2.247 0.141-4.461-0.671-6.109-2.318s-2.458-3.861-2.318-6.108c-0.18 0.141-0.35 0.29-0.51 0.451z"></path>
</symbol>
<symbol id="icon-snowflake" viewBox="0 0 32 32">
<path d="M23.93 18.266l-2.039-1.177c0.065-0.354 0.109-0.716 0.109-1.088 0-0.374-0.044-0.737-0.112-1.091l2.039-1.178c0.958-0.555 1.284-1.777 0.733-2.73-0.553-0.957-1.773-1.285-2.73-0.734l-2.059 1.189c-0.551-0.469-1.178-0.839-1.871-1.085v-2.37c0-1.104-0.895-2-2-2-1.104 0-2 0.896-2 2v2.368c-0.693 0.246-1.32 0.616-1.871 1.085l-2.055-1.186c-0.957-0.552-2.181-0.225-2.734 0.732-0.551 0.956-0.223 2.178 0.734 2.731l2.035 1.176c-0.066 0.355-0.109 0.72-0.109 1.095 0 0.372 0.043 0.736 0.109 1.090l-2.037 1.176c-0.958 0.552-1.287 1.777-0.733 2.734 0.551 0.953 1.775 1.281 2.733 0.73l2.052-1.186c0.551 0.469 1.18 0.841 1.875 1.089v2.367c0 1.105 0.896 2 2 2 1.106 0 2-0.895 2-2v-2.37c0.695-0.247 1.324-0.617 1.872-1.087l2.057 1.187c0.957 0.551 2.18 0.223 2.73-0.73 0.554-0.957 0.227-2.18-0.73-2.734zM14 16c0-1.104 0.895-2 2-2 1.104 0 2 0.896 2 2s-0.896 2-2 2c-1.105 0-2-0.896-2-2z"></path>
</symbol>
<symbol id="icon-cloudy" viewBox="0 0 32 32">
<path d="M13 4c0.552 0 1-0.448 1-1v-2c0-0.552-0.448-1-1-1s-1 0.448-1 1v2c0 0.552 0.448 1 1 1zM20.777 6.635l1.414-1.414c0.391-0.391 0.391-1.023 0-1.414s-1.023-0.391-1.414 0l-1.414 1.414c-0.391 0.391-0.391 1.023 0 1.414s1.023 0.391 1.414 0zM1 14h2c0.552 0 1-0.448 1-1s-0.448-1-1-1h-2c-0.552 0-1 0.448-1 1s0.448 1 1 1zM22 13c0 0.552 0.448 1 1 1h2c0.552 0 1-0.448 1-1s-0.448-1-1-1h-2c-0.552 0-1 0.448-1 1zM5.221 6.635c0.391 0.391 1.024 0.391 1.414 0s0.391-1.023 0-1.414l-1.414-1.414c-0.391-0.391-1.023-0.391-1.414 0s-0.391 1.023 0 1.414l1.414 1.414zM25 16c-0.332 0-0.66 0.023-0.987 0.070-1.048-1.43-2.445-2.521-4.029-3.219-0.081-3.789-3.176-6.852-6.984-6.852-3.859 0-7 3.141-7 7 0 1.090 0.271 2.109 0.719 3.027-3.727 0.152-6.719 3.211-6.719 6.973 0 3.859 3.141 7 7 7 0.856 0 1.693-0.156 2.482-0.458 1.81 1.578 4.112 2.458 6.518 2.458 2.409 0 4.708-0.88 6.518-2.458 0.789 0.302 1.626 0.458 2.482 0.458 3.859 0 7-3.141 7-7s-3.141-7-7-7zM13 8c2.488 0 4.535 1.823 4.919 4.203-0.626-0.125-1.266-0.203-1.919-0.203-2.871 0-5.531 1.238-7.398 3.328-0.371-0.698-0.602-1.482-0.602-2.328 0-2.762 2.238-5 5-5zM25 28c-1.070 0-2.057-0.344-2.871-0.917-1.467 1.768-3.652 2.917-6.129 2.917s-4.662-1.148-6.129-2.917c-0.813 0.573-1.801 0.917-2.871 0.917-2.762 0-5-2.238-5-5s2.238-5 5-5c0.484 0 0.941 0.091 1.383 0.221 0.176 0.049 0.354 0.089 0.52 0.158 0.273-0.535 0.617-1.025 0.999-1.484 1.461-1.758 3.634-2.895 6.099-2.895 0.633 0 1.24 0.091 1.828 0.232 0.66 0.156 1.284 0.393 1.865 0.706 1.456 0.773 2.651 1.971 3.404 3.441 0.587-0.242 1.229-0.379 1.904-0.379 2.762 0 5 2.238 5 5s-2.238 5-5 5z"></path>
</symbol>
<symbol id="icon-angellist" viewBox="0 0 32 32">
<path d="M21.953 13.272c0.98-2.667 1.747-4.867 2.297-6.605 0.547-1.733 0.824-2.8 0.824-3.2 0-0.42-0.093-0.752-0.28-0.984-0.18-0.232-0.432-0.352-0.756-0.352-0.413 0-0.84 0.34-1.253 1.020-0.427 0.68-0.893 1.779-1.413 3.289l-2.2 6.347 2.76 0.483zM19.029 19.185c-0.632-0.040-1.231-0.107-1.792-0.2-0.56-0.107-1.107-0.253-1.621-0.44 0.236 0.467 0.447 0.933 0.629 1.4 0.184 0.467 0.333 0.92 0.453 1.387 0.347-0.44 0.72-0.84 1.107-1.2 0.389-0.36 0.8-0.68 1.224-0.947zM16.547 12.519l-2.373-6.853c-0.619-1.747-1.093-2.88-1.433-3.427-0.333-0.533-0.7-0.8-1.096-0.8-0.307 0-0.556 0.107-0.747 0.347-0.192 0.24-0.285 0.547-0.285 0.933 0 0.667 0.253 1.84 0.76 3.52 0.507 1.667 1.28 3.853 2.307 6.573 0.080-0.16 0.213-0.28 0.373-0.347s0.373-0.107 0.653-0.107c0.080 0 0.253 0.013 0.52 0.013 0.253 0.027 0.693 0.053 1.293 0.12zM14.389 23.132c0.251 0 0.48-0.12 0.68-0.347 0.2-0.24 0.312-0.48 0.312-0.733 0-0.28-0.2-0.933-0.603-1.947-0.4-1.013-0.907-2.013-1.507-3-0.44-0.733-0.873-1.293-1.293-1.667-0.432-0.373-0.833-0.56-1.213-0.56-0.307 0-0.645 0.187-1.023 0.587-0.373 0.387-0.56 0.747-0.56 1.080 0 0.347 0.187 0.88 0.551 1.573 0.367 0.707 0.86 1.453 1.472 2.24 0.647 0.867 1.253 1.533 1.827 2.013 0.571 0.48 1.027 0.72 1.36 0.72h-0.003zM7.796 22.599c0.208 0.253 0.493 0.613 0.861 1.093 0.964 1.333 1.86 2 2.68 2 0.28 0 0.529-0.093 0.751-0.267 0.219-0.187 0.329-0.36 0.329-0.56 0-0.227-0.147-0.587-0.44-1.107-0.296-0.52-0.699-1.093-1.209-1.733-0.587-0.747-1.073-1.293-1.464-1.64-0.384-0.347-0.7-0.52-0.929-0.52-0.507 0-0.987 0.28-1.413 0.827-0.427 0.533-0.64 1.2-0.64 1.947 0 0.6 0.16 1.267 0.467 2.013 0.307 0.733 0.733 1.48 1.307 2.227 0.867 1.16 1.947 2.040 3.227 2.667 1.28 0.613 2.707 0.92 4.253 0.92 2.853 0 5.253-1.067 7.173-3.2 1.933-2.133 2.893-4.8 2.893-8.013 0-0.987-0.067-1.773-0.213-2.347s-0.387-1-0.72-1.267c-0.6-0.507-1.773-0.947-3.507-1.347s-3.547-0.6-5.44-0.6c-0.52 0-0.907 0.093-1.12 0.267s-0.32 0.48-0.32 0.897c0 1 0.56 1.72 1.68 2.168 1.12 0.453 2.92 0.68 5.413 0.68h0.901c0.2 0 0.373 0.080 0.493 0.232 0.12 0.147 0.2 0.373 0.24 0.693-0.253 0.227-0.76 0.493-1.539 0.8-0.787 0.293-1.373 0.6-1.787 0.887-0.88 0.645-1.587 1.413-2.12 2.299-0.533 0.88-0.8 1.72-0.8 2.511 0 0.48 0.115 1.067 0.344 1.747 0.227 0.68 0.347 1.097 0.347 1.267v0.147l-0.040 0.2c-0.64-0.040-1.147-0.417-1.52-1.133-0.383-0.707-0.56-1.653-0.56-2.84v-0.2c-0.12 0.1-0.235 0.18-0.347 0.22-0.115 0.045-0.237 0.067-0.36 0.067-0.133 0-0.264-0.008-0.387-0.027-0.12-0.021-0.24-0.053-0.387-0.1 0.040 0.16 0.076 0.32 0.101 0.471 0.013 0.16 0.027 0.28 0.027 0.36 0 0.541-0.213 1.013-0.64 1.4-0.427 0.383-0.933 0.573-1.52 0.573-0.92 0-1.863-0.453-2.813-1.347-0.953-0.899-1.427-1.787-1.427-2.647 0-0.16 0.020-0.307 0.053-0.431s0.1-0.227 0.187-0.32zM23.539 13.625c1.313 0.24 2.247 0.8 2.787 1.667 0.547 0.853 0.813 2.213 0.813 4.080 0 3.693-1.104 6.707-3.323 9.053-2.223 2.347-5.063 3.533-8.516 3.533-1.364 0-2.688-0.253-3.968-0.747-1.293-0.493-2.387-1.187-3.32-2.053-1.053-0.973-1.853-1.987-2.373-3.067-0.533-1.080-0.8-2.187-0.8-3.307 0-1.267 0.267-2.24 0.8-2.92 0.533-0.693 1.4-1.16 2.573-1.413-0.227-0.52-0.387-0.947-0.48-1.307-0.107-0.36-0.16-0.627-0.16-0.813 0-0.667 0.347-1.347 1.040-2.027 0.693-0.693 1.347-1.040 1.96-1.040 0.253 0 0.533 0.040 0.827 0.147 0.293 0.093 0.627 0.253 1 0.467-1.080-3.133-1.907-5.6-2.413-7.333-0.52-1.747-0.773-2.933-0.773-3.6 0-0.907 0.227-1.64 0.693-2.173 0.48-0.533 1.12-0.8 1.92-0.8 1.373 0 3.12 3.080 5.24 9.231 0.373 1.053 0.64 1.867 0.84 2.44l0.68-1.937c2.12-6.067 3.933-9.107 5.467-9.107 0.747 0 1.347 0.253 1.787 0.76 0.44 0.511 0.667 1.183 0.667 2.031 0 0.64-0.253 1.813-0.747 3.533-0.489 1.707-1.227 3.947-2.227 6.72z"></path>
</symbol>
<symbol id="icon-dev-dot-to" viewBox="0 0 32 32">
<path d="M9.893 13.4c-0.24-0.213-0.613-0.307-1.12-0.307h-0.773l0.027 3.253 0.053 3.267 0.747-0.027c0.547 0 0.84-0.093 1.107-0.347 0.32-0.32 0.347-0.48 0.347-2.933 0-2.547-0.027-2.613-0.387-2.907zM0 6.587v18.827h32v-18.827zM11.413 20.4c-0.587 0.773-1.413 1.027-3.373 1.027h-1.76v-10.053h1.867c2.227 0 2.88 0.24 3.467 1.2 0.36 0.573 0.387 0.8 0.427 3.427 0.067 2.973-0.027 3.64-0.627 4.4zM18.2 13.107h-3.293v2.36h2.027v1.707l-0.96 0.053-1 0.040v2.36l1.627 0.040 1.6 0.053v1.707h-2.133c-2.040 0-2.133-0.013-2.493-0.4l-0.4-0.373v-4.213c0-4.027 0.013-4.24 0.333-4.64 0.307-0.413 0.333-0.413 2.507-0.413h2.187zM24.44 20.373c-0.227 0.573-0.853 1.053-1.333 1.053-0.24 0-0.6-0.2-0.893-0.52-0.427-0.427-0.6-0.84-1.093-2.773l-1.2-4.52-0.6-2.227h1.013c0.533 0 1 0.027 1 0.067 0 0.080 1.547 6.053 1.68 6.44 0.053 0.2 0.427-0.933 0.973-3.067l0.88-3.36 0.987-0.053c0.533-0.027 0.973 0 0.973 0.053 0 0.187-2.227 8.507-2.387 8.907z"></path>
</symbol>
<symbol id="icon-github" viewBox="0 0 32 32">
<path d="M16 0.396c-8.84 0-16 7.164-16 16 0 7.071 4.584 13.067 10.94 15.18 0.8 0.151 1.093-0.344 1.093-0.769 0-0.38-0.013-1.387-0.020-2.72-4.451 0.965-5.389-2.147-5.389-2.147-0.728-1.847-1.78-2.34-1.78-2.34-1.449-0.992 0.112-0.972 0.112-0.972 1.607 0.112 2.451 1.648 2.451 1.648 1.427 2.447 3.745 1.74 4.66 1.331 0.144-1.035 0.556-1.74 1.013-2.14-3.553-0.4-7.288-1.776-7.288-7.907 0-1.747 0.62-3.173 1.647-4.293-0.18-0.404-0.72-2.031 0.14-4.235 0 0 1.34-0.429 4.4 1.64 1.28-0.356 2.64-0.532 4-0.54 1.36 0.008 2.72 0.184 4 0.54 3.040-2.069 4.38-1.64 4.38-1.64 0.86 2.204 0.32 3.831 0.16 4.235 1.020 1.12 1.64 2.547 1.64 4.293 0 6.147-3.74 7.5-7.3 7.893 0.56 0.48 1.080 1.461 1.080 2.96 0 2.141-0.020 3.861-0.020 4.381 0 0.42 0.28 0.92 1.1 0.76 6.401-2.099 10.981-8.099 10.981-15.159 0-8.836-7.164-16-16-16z"></path>
</symbol>
<symbol id="icon-heart" viewBox="0 0 32 32">
<path d="M29.193 5.265c-3.629-3.596-9.432-3.671-13.191-0.288-3.76-3.383-9.561-3.308-13.192 0.288-3.741 3.704-3.741 9.709 0 13.415 1.069 1.059 11.053 10.941 11.053 10.941 1.183 1.172 3.096 1.172 4.278 0 0 0 10.932-10.822 11.053-10.941 3.742-3.706 3.742-9.711-0.001-13.415zM27.768 17.268l-11.053 10.941c-0.393 0.391-1.034 0.391-1.425 0l-11.053-10.941c-2.95-2.92-2.95-7.671 0-10.591 2.844-2.815 7.416-2.914 10.409-0.222l1.356 1.22 1.355-1.22c2.994-2.692 7.566-2.594 10.41 0.222 2.95 2.919 2.95 7.67 0.001 10.591zM9.253 7.501c0.277 0 0.5 0.224 0.5 0.5s-0.224 0.5-0.5 0.5h-0.001c-1.794 0-3.249 1.455-3.249 3.249v0.001c0 0.276-0.224 0.5-0.5 0.5s-0.5-0.224-0.5-0.5v0c0-2.346 1.901-4.247 4.246-4.249 0.002 0 0.002-0.001 0.004-0.001z"></path>
</symbol>
<symbol id="icon-search" viewBox="0 0 32 32">
<path d="M20 0.005c-6.627 0-12 5.373-12 12 0 2.026 0.507 3.933 1.395 5.608l-8.344 8.342 0.007 0.006c-0.652 0.641-1.058 1.529-1.058 2.516 0 1.949 1.58 3.529 3.529 3.529 0.985 0 1.874-0.406 2.515-1.059l-0.002-0.002 8.341-8.34c1.676 0.891 3.586 1.4 5.617 1.4 6.627 0 12-5.373 12-12s-5.373-12-12-12zM4.795 29.697c-0.322 0.334-0.768 0.543-1.266 0.543-0.975 0-1.765-0.789-1.765-1.764 0-0.498 0.21-0.943 0.543-1.266l-0.009-0.008 8.066-8.066c0.705 0.951 1.545 1.791 2.494 2.498l-8.063 8.063zM20 22.006c-5.522 0-10-4.479-10-10s4.478-10 10-10c5.521 0 10 4.478 10 10s-4.479 10-10 10zM20 5.005c0.275 0 0.5 0.224 0.5 0.5s-0.225 0.5-0.5 0.5c-3.314 0-6 2.687-6 6 0 0.276-0.224 0.5-0.5 0.5s-0.5-0.224-0.5-0.5c0-3.866 3.133-7 7-7z"></path>
</symbol>
<symbol id="icon-location" viewBox="0 0 32 32">
<path d="M16.002 17.746c3.309 0 6-2.692 6-6s-2.691-6-6-6c-3.309 0-6 2.691-6 6s2.691 6 6 6zM16.002 6.746c2.758 0 5 2.242 5 5s-2.242 5-5 5c-2.758 0-5-2.242-5-5s2.242-5 5-5zM16 0c-6.618 0-12 5.316-12 12.001 0 7 6.001 14.161 10.376 19.194 0.016 0.020 0.718 0.805 1.586 0.805 0.002 0 0.073 0 0.077 0 0.867 0 1.57-0.785 1.586-0.805 4.377-5.033 10.377-12.193 10.377-19.194 0-6.685-5.383-12.001-12.002-12.001zM16.117 29.883c-0.021 0.020-0.082 0.064-0.135 0.098-0.010-0.027-0.084-0.086-0.129-0.133-3.665-4.217-9.853-11.334-9.853-17.847 0-5.514 4.487-10.001 10-10.001 5.516 0 10.002 4.487 10.002 10.002 0 6.512-6.188 13.629-9.885 17.881z"></path>
</symbol>
<symbol id="icon-bubble1" viewBox="0 0 32 32">
<path d="M16 7c0.276 0 0.5 0.224 0.5 0.5s-0.225 0.5-0.5 0.5c-5.327 0-10 2.804-10 6 0 0.276-0.224 0.5-0.5 0.5s-0.5-0.224-0.5-0.5c0-3.794 5.037-7 11-7zM16 2c-8.837 0-16 5.373-16 12 0 4.127 2.779 7.766 7.008 9.926 0 0.027-0.008 0.045-0.008 0.074 0 1.793-1.339 3.723-1.928 4.736 0.001 0 0.002 0 0.002 0-0.047 0.11-0.074 0.231-0.074 0.358 0 0.5 0.405 0.906 0.906 0.906 0.094 0 0.259-0.025 0.255-0.014 3.125-0.512 6.069-3.383 6.753-4.215 0.999 0.147 2.029 0.229 3.086 0.229 8.835 0 16-5.373 16-12s-7.164-12-16-12zM16 24c-0.917 0-1.858-0.070-2.796-0.207-0.097-0.016-0.194-0.021-0.29-0.021-0.594 0-1.163 0.264-1.546 0.73-0.428 0.521-1.646 1.684-3.085 2.539 0.39-0.895 0.695-1.898 0.716-2.932 0.006-0.064 0.009-0.129 0.009-0.184 0-0.752-0.421-1.439-1.090-1.781-3.706-1.892-5.918-4.937-5.918-8.144 0-5.514 6.28-10 14-10 7.718 0 14 4.486 14 10s-6.281 10-14 10z"></path>
</symbol>
<symbol id="icon-graduate" viewBox="0 0 42 32">
<path d="M32.639 17.561c0 0-4.592-4.682-10.92-4.682-6.183 0-12.295 4.682-12.295 4.682l-3.433-1.433v4.204c0.541 0.184 0.937 0.682 0.937 1.285 0 0.609-0.404 1.108-0.953 1.288l1.015 2.831h-2.996l1.024-2.855c-0.492-0.209-0.836-0.695-0.836-1.264 0-0.557 0.334-1.031 0.811-1.247v-4.659l-4.993-2.082 21.969-9.861 20.156 9.985-9.486 3.808zM21.469 15.251c6.366 0 9.486 3.37 9.486 3.37v6.99c0 0-3.245 2.621-9.985 2.621s-8.987-2.621-8.987-2.621v-6.99c0 0 3.12-3.37 9.486-3.37zM21.344 26.734c4.412 0 7.989-0.895 7.989-1.997s-3.577-1.997-7.989-1.997-7.988 0.895-7.988 1.997 3.576 1.997 7.988 1.997z"></path>
</symbol>
<symbol id="icon-rocket" viewBox="0 0 32 32">
<path d="M23.371 29.529c0 0 0.335-2.012-1.731-4.469 2.011-5.641 2.29-10.778 2.29-10.778s4.133 0.95 4.133 5.026c-0.001 6.981-4.692 10.221-4.692 10.221zM11.979 27.078c0 0-2.768-8.883-2.768-12.568 0-1.658 0.187-3.133 0.478-4.472h12.61c0.293 1.34 0.481 2.816 0.481 4.473 0 3.629-2.76 12.567-2.76 12.567h-8.041zM15.99 12.069c-1.418 0-2.568 1.15-2.568 2.569 0 1.418 1.15 2.569 2.568 2.569s2.569-1.15 2.569-2.569c0.001-1.419-1.15-2.569-2.569-2.569zM15.438 0.596v-3.498h1v3.409c1.143 0.832 4.236 3.478 5.635 8.575h-12.16c1.352-4.957 4.296-7.574 5.525-8.486zM8.629 29.529c0 0-4.691-3.24-4.691-10.221 0-4.076 4.133-5.026 4.133-5.026s0.279 5.137 2.289 10.778c-2.067 2.458-1.731 4.469-1.731 4.469zM17.691 30.045l-0.838-0.838-0.893 2.793-1.062-2.793-0.726 1.451-1.062-2.625h5.752l-1.171 2.012z"></path>
</symbol>
<symbol id="icon-target" viewBox="0 0 32 32">
<path d="M28.122 3.584l-2.147 1.898-1.303 0.020-2.73 2.855c1.76 1.87 2.846 4.383 2.846 7.154 0 5.773-4.681 10.455-10.455 10.455s-10.454-4.682-10.454-10.455c0-5.774 4.681-10.455 10.454-10.455 2.645 0 5.053 0.989 6.894 2.608l2.635-2.635 0.002-1.161 2.022-2.335-0.002 2.079 2.238-0.028zM20.885 9.414l-2.658 2.659c0.9 0.977 1.463 2.27 1.463 3.703 0 3.025-2.451 5.476-5.476 5.476s-5.477-2.451-5.477-5.476c0-3.024 2.452-5.477 5.477-5.477 1.231 0 2.355 0.421 3.271 1.107l2.686-2.686c-1.569-1.35-3.605-2.171-5.838-2.171-4.949 0-8.961 4.013-8.961 8.962s4.012 8.96 8.961 8.96 8.961-4.012 8.961-8.96c-0.001-2.358-0.919-4.497-2.409-6.097zM14.172 17.352c-0.824 0-1.493-0.668-1.493-1.493s0.669-1.494 1.493-1.494c0.104 0 0.196 0.039 0.295 0.060l2.313-2.313c-0.728-0.511-1.609-0.816-2.566-0.816-2.475 0-4.48 2.007-4.48 4.481s2.006 4.48 4.48 4.48 4.48-2.006 4.48-4.48c0-1.158-0.451-2.203-1.173-2.999l-2.185 2.186c0.193 0.252 0.329 0.554 0.329 0.896 0.001 0.824-0.668 1.492-1.493 1.492zM9.855 26.748c0.297 0.15 0.602 0.285 0.915 0.406l-1.768 3.062c-0.138 0.238-0.442 0.318-0.681 0.182-0.237-0.137-0.319-0.441-0.182-0.68l1.716-2.97zM14.856 27.531v1.395c0 0.275-0.224 0.498-0.498 0.498-0.275 0-0.498-0.223-0.498-0.498v-1.395c0.166 0.008 0.33 0.025 0.498 0.025s0.332-0.017 0.498-0.025zM20.951 29.719c0.137 0.238 0.056 0.543-0.183 0.68s-0.542 0.057-0.681-0.182l-1.767-3.062c0.312-0.121 0.618-0.256 0.915-0.406l1.716 2.97z"></path>
</symbol>
<symbol id="icon-megaphone" viewBox="0 0 20 20">
<path d="M17.223 7.030c-1.584-3.686-4.132-6.49-5.421-5.967-2.189 0.891 1.304 5.164-9.447 9.533-0.929 0.379-1.164 1.888-0.775 2.792 0.388 0.902 1.658 1.801 2.587 1.424 0.161-0.066 0.751-0.256 0.751-0.256 0.663 0.891 1.357 0.363 1.604 0.928 0.296 0.68 0.939 2.158 1.158 2.66s0.715 0.967 1.075 0.83c0.359-0.137 1.582-0.602 2.050-0.779s0.579-0.596 0.436-0.924c-0.154-0.355-0.786-0.459-0.967-0.873-0.18-0.412-0.769-1.738-0.938-2.156-0.23-0.568 0.259-1.031 0.97-1.104 4.894-0.512 5.809 2.512 7.475 1.834 1.287-0.525 1.025-4.259-0.558-7.942zM16.672 13.006c-0.287 0.115-2.213-1.402-3.443-4.267-1.231-2.863-1.076-5.48-0.79-5.597 0.286-0.115 2.165 1.717 3.395 4.58s1.124 5.167 0.838 5.284z"></path>
</symbol>
<symbol id="icon-share" viewBox="0 0 20 20">
<path d="M15 13.442c-0.633 0-1.204 0.246-1.637 0.642l-5.938-3.463c0.046-0.188 0.075-0.384 0.075-0.584s-0.029-0.395-0.075-0.583l5.875-3.429c0.446 0.417 1.042 0.675 1.7 0.675 1.379 0 2.5-1.121 2.5-2.5s-1.121-2.5-2.5-2.5-2.5 1.121-2.5 2.5c0 0.2 0.029 0.396 0.075 0.583l-5.875 3.429c-0.446-0.416-1.042-0.675-1.7-0.675-1.379 0-2.5 1.121-2.5 2.5s1.121 2.5 2.5 2.5c0.658 0 1.254-0.258 1.7-0.675l5.938 3.463c-0.042 0.175-0.067 0.358-0.067 0.546 0 1.342 1.087 2.429 2.429 2.429s2.429-1.088 2.429-2.429-1.087-2.429-2.429-2.429z"></path>
</symbol>
<symbol id="icon-thumbs-up" viewBox="0 0 20 20">
<path d="M13.648 7.362c-0.133-0.355 3.539-3.634 1.398-6.291-0.501-0.621-2.201 2.975-4.615 4.603-1.332 0.898-4.431 2.81-4.431 3.867v6.842c0 1.271 4.914 2.617 8.648 2.617 1.369 0 3.352-8.576 3.352-9.938 0-1.368-4.221-1.344-4.352-1.7zM5 7.457c-0.658 0-3 0.4-3 3.123v4.848c0 2.721 2.342 3.021 3 3.021 0.657 0-1-0.572-1-2.26v-6.373c0-1.768 1.657-2.359 1-2.359z"></path>
</symbol>
<symbol id="icon-facebook" viewBox="0 0 24 24">
<path d="M17 3v2h-2c-0.552 0-1.053 0.225-1.414 0.586s-0.586 0.862-0.586 1.414v3c0 0.552 0.448 1 1 1h2.719l-0.5 2h-2.219c-0.552 0-1 0.448-1 1v7h-2v-7c0-0.552-0.448-1-1-1h-2v-2h2c0.552 0 1-0.448 1-1v-3c0-1.105 0.447-2.103 1.172-2.828s1.723-1.172 2.828-1.172zM18 1h-3c-1.657 0-3.158 0.673-4.243 1.757s-1.757 2.586-1.757 4.243v2h-2c-0.552 0-1 0.448-1 1v4c0 0.552 0.448 1 1 1h2v7c0 0.552 0.448 1 1 1h4c0.552 0 1-0.448 1-1v-7h2c0.466 0 0.858-0.319 0.97-0.757l1-4c0.134-0.536-0.192-1.079-0.728-1.213-0.083-0.021-0.167-0.031-0.242-0.030h-3v-2h3c0.552 0 1-0.448 1-1v-4c0-0.552-0.448-1-1-1z"></path>
</symbol>
<symbol id="icon-filter" viewBox="0 0 24 24">
<path d="M19.845 4l-6.609 7.814c-0.147 0.173-0.236 0.399-0.236 0.646v6.922l-2-1v-5.922c0.001-0.227-0.077-0.457-0.236-0.646l-6.609-7.814zM22 2h-20c-0.552 0-1 0.448-1 1 0 0.247 0.089 0.473 0.236 0.646l7.764 9.18v6.174c0 0.389 0.222 0.727 0.553 0.894l4 2c0.494 0.247 1.095 0.047 1.342-0.447 0.072-0.146 0.106-0.301 0.105-0.447v-8.174l7.764-9.18c0.357-0.422 0.304-1.053-0.118-1.409-0.189-0.16-0.419-0.238-0.646-0.237z"></path>
</symbol>
<symbol id="icon-github1" viewBox="0 0 24 24">
<path d="M8.713 18.042c-1.268 0.38-2.060 0.335-2.583 0.17-0.231-0.073-0.431-0.176-0.614-0.302-0.411-0.284-0.727-0.675-1.119-1.172-0.356-0.451-0.85-1.107-1.551-1.476-0.185-0.098-0.386-0.177-0.604-0.232-0.536-0.134-1.079 0.192-1.213 0.728s0.192 1.079 0.728 1.213c0.074 0.023 0.155 0.060 0.155 0.060 0.252 0.133 0.487 0.404 0.914 0.946 0.366 0.464 0.856 1.098 1.553 1.579 0.332 0.229 0.711 0.426 1.149 0.564 1.015 0.321 2.236 0.296 3.76-0.162 0.529-0.159 0.829-0.716 0.67-1.245s-0.716-0.829-1.245-0.67zM17 22v-3.792c0.052-0.684-0.056-1.343-0.292-1.942 0.777-0.171 1.563-0.427 2.297-0.823 2.083-1.124 3.496-3.242 3.496-6.923 0-1.503-0.516-2.887-1.379-3.981 0.355-1.345 0.226-2.726-0.293-3.933-0.122-0.283-0.359-0.482-0.634-0.564-0.357-0.106-1.732-0.309-4.373 1.362-2.273-0.541-4.557-0.509-6.646-0.002-2.639-1.669-4.013-1.466-4.37-1.36-0.296 0.088-0.521 0.3-0.635 0.565-0.554 1.292-0.624 2.672-0.292 3.932-0.93 1.178-1.387 2.601-1.379 4.017 0 3.622 1.389 5.723 3.441 6.859 0.752 0.416 1.56 0.685 2.357 0.867-0.185 0.468-0.286 0.961-0.304 1.456-0.005 0.141-0.003 0.283 0.005 0.424l0.001 3.838c0 0.552 0.448 1 1 1s1-0.448 1-1v-3.87c0-0.021-0.001-0.045-0.002-0.069-0.006-0.084-0.007-0.168-0.004-0.252 0.020-0.568 0.241-1.126 0.665-1.564 0.145-0.149 0.246-0.347 0.274-0.572 0.068-0.548-0.321-1.048-0.869-1.116-0.34-0.042-0.677-0.094-1.006-0.159-0.79-0.156-1.518-0.385-2.147-0.733-1.305-0.723-2.391-2.071-2.41-5.042 0.013-1.241 0.419-2.319 1.224-3.165 0.257-0.273 0.35-0.671 0.212-1.040-0.28-0.748-0.341-1.58-0.14-2.392 0.491 0.107 1.354 0.416 2.647 1.282 0.235 0.157 0.533 0.214 0.825 0.133 1.997-0.557 4.242-0.602 6.47 0.002 0.271 0.073 0.569 0.033 0.818-0.135 1.293-0.866 2.156-1.175 2.647-1.282 0.189 0.766 0.157 1.595-0.141 2.392-0.129 0.352-0.058 0.755 0.213 1.040 0.758 0.795 1.224 1.872 1.224 3.060 0 3.075-1.114 4.445-2.445 5.163-0.623 0.336-1.343 0.555-2.123 0.7-0.322 0.060-0.651 0.106-0.983 0.143-0.21 0.023-0.418 0.114-0.584 0.275-0.397 0.384-0.408 1.017-0.024 1.414 0.067 0.070 0.13 0.143 0.188 0.22 0.34 0.449 0.521 1.015 0.474 1.617 0 0.024-0.001 0.051-0.003 0.078v3.872c0 0.552 0.448 1 1 1s1-0.448 1-1z"></path>
</symbol>
<symbol id="icon-instagram1" viewBox="0 0 24 24">
<path d="M7 1c-1.657 0-3.158 0.673-4.243 1.757s-1.757 2.586-1.757 4.243v10c0 1.657 0.673 3.158 1.757 4.243s2.586 1.757 4.243 1.757h10c1.657 0 3.158-0.673 4.243-1.757s1.757-2.586 1.757-4.243v-10c0-1.657-0.673-3.158-1.757-4.243s-2.586-1.757-4.243-1.757zM7 3h10c1.105 0 2.103 0.447 2.828 1.172s1.172 1.723 1.172 2.828v10c0 1.105-0.447 2.103-1.172 2.828s-1.723 1.172-2.828 1.172h-10c-1.105 0-2.103-0.447-2.828-1.172s-1.172-1.723-1.172-2.828v-10c0-1.105 0.447-2.103 1.172-2.828s1.723-1.172 2.828-1.172zM16.989 11.223c-0.15-0.972-0.571-1.857-1.194-2.567-0.754-0.861-1.804-1.465-3.009-1.644-0.464-0.074-0.97-0.077-1.477-0.002-1.366 0.202-2.521 0.941-3.282 1.967s-1.133 2.347-0.93 3.712 0.941 2.521 1.967 3.282 2.347 1.133 3.712 0.93 2.521-0.941 3.282-1.967 1.133-2.347 0.93-3.712zM15.011 11.517c0.122 0.82-0.1 1.609-0.558 2.227s-1.15 1.059-1.969 1.18-1.609-0.1-2.227-0.558-1.059-1.15-1.18-1.969 0.1-1.609 0.558-2.227 1.15-1.059 1.969-1.18c0.313-0.046 0.615-0.042 0.87-0.002 0.74 0.11 1.366 0.47 1.818 0.986 0.375 0.428 0.63 0.963 0.72 1.543zM17.5 7.5c0.552 0 1-0.448 1-1s-0.448-1-1-1-1 0.448-1 1 0.448 1 1 1z"></path>
</symbol>
<symbol id="icon-linkedin" viewBox="0 0 24 24">
<path d="M16 7c-1.933 0-3.684 0.785-4.95 2.050s-2.050 3.017-2.050 4.95v7c0 0.552 0.448 1 1 1h4c0.552 0 1-0.448 1-1v-7c0-0.276 0.111-0.525 0.293-0.707s0.431-0.293 0.707-0.293 0.525 0.111 0.707 0.293 0.293 0.431 0.293 0.707v7c0 0.552 0.448 1 1 1h4c0.552 0 1-0.448 1-1v-7c0-1.933-0.785-3.684-2.050-4.95s-3.017-2.050-4.95-2.050zM16 9c1.381 0 2.63 0.559 3.536 1.464s1.464 2.155 1.464 3.536v6h-2v-6c0-0.828-0.337-1.58-0.879-2.121s-1.293-0.879-2.121-0.879-1.58 0.337-2.121 0.879-0.879 1.293-0.879 2.121v6h-2v-6c0-1.381 0.559-2.63 1.464-3.536s2.155-1.464 3.536-1.464zM2 8c-0.552 0-1 0.448-1 1v12c0 0.552 0.448 1 1 1h4c0.552 0 1-0.448 1-1v-12c0-0.552-0.448-1-1-1zM3 10h2v10h-2zM7 4c0-0.828-0.337-1.58-0.879-2.121s-1.293-0.879-2.121-0.879-1.58 0.337-2.121 0.879-0.879 1.293-0.879 2.121 0.337 1.58 0.879 2.121 1.293 0.879 2.121 0.879 1.58-0.337 2.121-0.879 0.879-1.293 0.879-2.121zM5 4c0 0.276-0.111 0.525-0.293 0.707s-0.431 0.293-0.707 0.293-0.525-0.111-0.707-0.293-0.293-0.431-0.293-0.707 0.111-0.525 0.293-0.707 0.431-0.293 0.707-0.293 0.525 0.111 0.707 0.293 0.293 0.431 0.293 0.707z"></path>
</symbol>
<symbol id="icon-message-circle" viewBox="0 0 24 24">
<path d="M22 11.497v-0.497c0-0.017-0.001-0.038-0.002-0.058-0.136-2.338-1.113-4.461-2.642-6.051-1.602-1.667-3.814-2.752-6.301-2.889-0.016-0.001-0.036-0.002-0.055-0.002h-0.489c-1.405-0.016-2.882 0.31-4.264 1.008-1.223 0.621-2.291 1.488-3.139 2.535-1.322 1.634-2.107 3.705-2.108 5.946-0.014 1.275 0.253 2.61 0.824 3.877l-1.772 5.317c-0.066 0.196-0.072 0.418 0 0.632 0.175 0.524 0.741 0.807 1.265 0.632l5.314-1.771c1.16 0.527 2.484 0.826 3.876 0.823 1.372-0.009 2.714-0.308 3.941-0.866 1.912-0.871 3.54-2.373 4.541-4.375 0.644-1.249 1.015-2.715 1.011-4.261zM20 11.503c0.003 1.225-0.292 2.375-0.789 3.339-0.801 1.602-2.082 2.785-3.592 3.472-0.97 0.442-2.035 0.679-3.126 0.686-1.221 0.003-2.371-0.292-3.335-0.789-0.249-0.129-0.528-0.142-0.775-0.060l-3.803 1.268 1.268-3.803c0.088-0.263 0.060-0.537-0.056-0.767-0.552-1.094-0.804-2.254-0.792-3.338 0.001-1.789 0.619-3.42 1.663-4.709 0.671-0.829 1.518-1.517 2.49-2.010 1.092-0.552 2.252-0.804 3.336-0.792h0.456c1.962 0.107 3.704 0.961 4.969 2.277 1.202 1.251 1.972 2.916 2.086 4.753z"></path>
</symbol>
<symbol id="icon-moon1" viewBox="0 0 24 24">
<path d="M21.996 12.882c0.022-0.233-0.038-0.476-0.188-0.681-0.325-0.446-0.951-0.544-1.397-0.219-0.95 0.693-2.060 1.086-3.188 1.162-1.368 0.092-2.765-0.283-3.95-1.158-1.333-0.985-2.139-2.415-2.367-3.935s0.124-3.124 1.109-4.456c0.142-0.191 0.216-0.435 0.191-0.691-0.053-0.55-0.542-0.952-1.092-0.898-2.258 0.22-4.314 1.18-5.895 2.651-1.736 1.615-2.902 3.847-3.137 6.386-0.254 2.749 0.631 5.343 2.266 7.311s4.022 3.313 6.772 3.567 5.343-0.631 7.311-2.266 3.313-4.022 3.567-6.772zM19.567 14.674c-0.49 1.363-1.335 2.543-2.416 3.441-1.576 1.309-3.648 2.016-5.848 1.813s-4.108-1.278-5.417-2.854-2.016-3.648-1.813-5.848c0.187-2.032 1.117-3.814 2.507-5.106 0.782-0.728 1.71-1.3 2.731-1.672-0.456 1.264-0.577 2.606-0.384 3.899 0.303 2.023 1.38 3.934 3.156 5.247 1.578 1.167 3.448 1.668 5.272 1.545 0.752-0.050 1.496-0.207 2.21-0.465z"></path>
</symbol>
<symbol id="icon-search1" viewBox="0 0 24 24">
<path d="M16.041 15.856c-0.034 0.026-0.067 0.055-0.099 0.087s-0.060 0.064-0.087 0.099c-1.258 1.213-2.969 1.958-4.855 1.958-1.933 0-3.682-0.782-4.95-2.050s-2.050-3.017-2.050-4.95 0.782-3.682 2.050-4.95 3.017-2.050 4.95-2.050 3.682 0.782 4.95 2.050 2.050 3.017 2.050 4.95c0 1.886-0.745 3.597-1.959 4.856zM21.707 20.293l-3.675-3.675c1.231-1.54 1.968-3.493 1.968-5.618 0-2.485-1.008-4.736-2.636-6.364s-3.879-2.636-6.364-2.636-4.736 1.008-6.364 2.636-2.636 3.879-2.636 6.364 1.008 4.736 2.636 6.364 3.879 2.636 6.364 2.636c2.125 0 4.078-0.737 5.618-1.968l3.675 3.675c0.391 0.391 1.024 0.391 1.414 0s0.391-1.024 0-1.414z"></path>
</symbol>
<symbol id="icon-settings" viewBox="0 0 24 24">
<path d="M16 12c0-1.104-0.449-2.106-1.172-2.828s-1.724-1.172-2.828-1.172-2.106 0.449-2.828 1.172-1.172 1.724-1.172 2.828 0.449 2.106 1.172 2.828 1.724 1.172 2.828 1.172 2.106-0.449 2.828-1.172 1.172-1.724 1.172-2.828zM14 12c0 0.553-0.223 1.051-0.586 1.414s-0.861 0.586-1.414 0.586-1.051-0.223-1.414-0.586-0.586-0.861-0.586-1.414 0.223-1.051 0.586-1.414 0.861-0.586 1.414-0.586 1.051 0.223 1.414 0.586 0.586 0.861 0.586 1.414zM20.315 15.404c0.046-0.105 0.112-0.191 0.192-0.257 0.112-0.092 0.251-0.146 0.403-0.147h0.090c0.828 0 1.58-0.337 2.121-0.879s0.879-1.293 0.879-2.121-0.337-1.58-0.879-2.121-1.293-0.879-2.121-0.879h-0.159c-0.11-0.001-0.215-0.028-0.308-0.076-0.127-0.066-0.23-0.172-0.292-0.312-0.003-0.029-0.004-0.059-0.004-0.089-0.024-0.055-0.040-0.111-0.049-0.168 0.020-0.334 0.077-0.454 0.168-0.547l0.062-0.062c0.585-0.586 0.878-1.356 0.877-2.122s-0.294-1.536-0.881-2.122c-0.586-0.585-1.356-0.878-2.122-0.877s-1.536 0.294-2.12 0.879l-0.046 0.046c-0.083 0.080-0.183 0.136-0.288 0.166-0.14 0.039-0.291 0.032-0.438-0.033-0.101-0.044-0.187-0.11-0.253-0.19-0.092-0.112-0.146-0.251-0.147-0.403v-0.090c0-0.828-0.337-1.58-0.879-2.121s-1.293-0.879-2.121-0.879-1.58 0.337-2.121 0.879-0.879 1.293-0.879 2.121v0.159c-0.001 0.11-0.028 0.215-0.076 0.308-0.066 0.127-0.172 0.23-0.312 0.292-0.029 0.003-0.059 0.004-0.089 0.004-0.055 0.024-0.111 0.040-0.168 0.049-0.335-0.021-0.455-0.078-0.548-0.169l-0.062-0.062c-0.586-0.585-1.355-0.878-2.122-0.878s-1.535 0.294-2.122 0.882c-0.585 0.586-0.878 1.355-0.878 2.122s0.294 1.536 0.879 2.12l0.048 0.047c0.080 0.083 0.136 0.183 0.166 0.288 0.039 0.14 0.032 0.291-0.031 0.434-0.006 0.016-0.013 0.034-0.021 0.052-0.041 0.109-0.108 0.203-0.191 0.275-0.11 0.095-0.25 0.153-0.383 0.156h-0.090c-0.828 0-1.58 0.337-2.121 0.879s-0.879 1.294-0.879 2.122 0.337 1.58 0.879 2.121 1.293 0.879 2.121 0.879h0.159c0.11 0.001 0.215 0.028 0.308 0.076 0.128 0.067 0.233 0.174 0.296 0.321 0.024 0.055 0.040 0.111 0.049 0.168-0.020 0.334-0.077 0.454-0.168 0.547l-0.062 0.062c-0.585 0.586-0.878 1.356-0.877 2.122s0.294 1.536 0.881 2.122c0.586 0.585 1.356 0.878 2.122 0.877s1.536-0.294 2.12-0.879l0.047-0.048c0.083-0.080 0.183-0.136 0.288-0.166 0.14-0.039 0.291-0.032 0.434 0.031 0.016 0.006 0.034 0.013 0.052 0.021 0.109 0.041 0.203 0.108 0.275 0.191 0.095 0.11 0.153 0.25 0.156 0.383v0.092c0 0.828 0.337 1.58 0.879 2.121s1.293 0.879 2.121 0.879 1.58-0.337 2.121-0.879 0.879-1.293 0.879-2.121v-0.159c0.001-0.11 0.028-0.215 0.076-0.308 0.067-0.128 0.174-0.233 0.321-0.296 0.055-0.024 0.111-0.040 0.168-0.049 0.334 0.020 0.454 0.077 0.547 0.168l0.062 0.062c0.586 0.585 1.356 0.878 2.122 0.877s1.536-0.294 2.122-0.881c0.585-0.586 0.878-1.356 0.877-2.122s-0.294-1.536-0.879-2.12l-0.048-0.047c-0.080-0.083-0.136-0.183-0.166-0.288-0.039-0.14-0.032-0.291 0.031-0.434zM18.396 9.302c-0.012-0.201-0.038-0.297-0.076-0.382v0.080c0 0.043 0.003 0.084 0.008 0.125 0.021 0.060 0.043 0.119 0.068 0.177 0.004 0.090 0.005 0.091 0.005 0.092 0.249 0.581 0.684 1.030 1.208 1.303 0.371 0.193 0.785 0.298 1.211 0.303h0.18c0.276 0 0.525 0.111 0.707 0.293s0.293 0.431 0.293 0.707-0.111 0.525-0.293 0.707-0.431 0.293-0.707 0.293h-0.090c-0.637 0.003-1.22 0.228-1.675 0.603-0.323 0.266-0.581 0.607-0.75 0.993-0.257 0.582-0.288 1.21-0.127 1.782 0.119 0.423 0.341 0.814 0.652 1.136l0.072 0.073c0.196 0.196 0.294 0.45 0.294 0.707s-0.097 0.512-0.292 0.707c-0.197 0.197-0.451 0.295-0.709 0.295s-0.512-0.097-0.707-0.292l-0.061-0.061c-0.463-0.453-1.040-0.702-1.632-0.752-0.437-0.037-0.882 0.034-1.293 0.212-0.578 0.248-1.027 0.683-1.3 1.206-0.193 0.371-0.298 0.785-0.303 1.211v0.181c0 0.276-0.111 0.525-0.293 0.707s-0.43 0.292-0.706 0.292-0.525-0.111-0.707-0.293-0.293-0.431-0.293-0.707v-0.090c-0.015-0.66-0.255-1.242-0.644-1.692-0.284-0.328-0.646-0.585-1.058-0.744-0.575-0.247-1.193-0.274-1.756-0.116-0.423 0.119-0.814 0.341-1.136 0.652l-0.073 0.072c-0.196 0.196-0.45 0.294-0.707 0.294s-0.512-0.097-0.707-0.292c-0.197-0.197-0.295-0.451-0.295-0.709s0.097-0.512 0.292-0.707l0.061-0.061c0.453-0.463 0.702-1.040 0.752-1.632 0.037-0.437-0.034-0.882-0.212-1.293-0.248-0.578-0.683-1.027-1.206-1.3-0.371-0.193-0.785-0.298-1.211-0.303l-0.18 0.001c-0.276 0-0.525-0.111-0.707-0.293s-0.293-0.431-0.293-0.707 0.111-0.525 0.293-0.707 0.431-0.293 0.707-0.293h0.090c0.66-0.015 1.242-0.255 1.692-0.644 0.328-0.284 0.585-0.646 0.744-1.058 0.247-0.575 0.274-1.193 0.116-1.756-0.119-0.423-0.341-0.814-0.652-1.136l-0.073-0.073c-0.196-0.196-0.294-0.45-0.294-0.707s0.097-0.512 0.292-0.707c0.197-0.197 0.451-0.295 0.709-0.295s0.512 0.097 0.707 0.292l0.061 0.061c0.463 0.453 1.040 0.702 1.632 0.752 0.37 0.032 0.745-0.014 1.101-0.137 0.096-0.012 0.186-0.036 0.266-0.072-0.031 0.001-0.061 0.003-0.089 0.004-0.201 0.012-0.297 0.038-0.382 0.076h0.080c0.043 0 0.084-0.003 0.125-0.008 0.060-0.021 0.119-0.043 0.177-0.068 0.090-0.004 0.091-0.005 0.092-0.005 0.581-0.249 1.030-0.684 1.303-1.208 0.193-0.37 0.298-0.785 0.303-1.21v-0.181c0-0.276 0.111-0.525 0.293-0.707s0.431-0.293 0.707-0.293 0.525 0.111 0.707 0.293 0.293 0.431 0.293 0.707v0.090c0.003 0.637 0.228 1.22 0.603 1.675 0.266 0.323 0.607 0.581 0.996 0.751 0.578 0.255 1.206 0.286 1.778 0.125 0.423-0.119 0.814-0.341 1.136-0.652l0.073-0.072c0.196-0.196 0.45-0.294 0.707-0.294s0.512 0.097 0.707 0.292c0.197 0.197 0.295 0.451 0.295 0.709s-0.097 0.512-0.292 0.707l-0.061 0.061c-0.453 0.463-0.702 1.040-0.752 1.632-0.032 0.37 0.014 0.745 0.137 1.101 0.012 0.095 0.037 0.185 0.072 0.266-0.001-0.032-0.002-0.062-0.004-0.089z"></path>
</symbol>
<symbol id="icon-share-2" viewBox="0 0 24 24">
<path d="M16.214 18.098c0.025-0.033 0.048-0.067 0.070-0.104 0.020-0.035 0.038-0.071 0.054-0.107 0.073-0.108 0.156-0.209 0.248-0.301 0.363-0.363 0.861-0.586 1.414-0.586s1.051 0.223 1.414 0.586 0.586 0.861 0.586 1.414-0.223 1.051-0.586 1.414-0.861 0.586-1.414 0.586-1.051-0.223-1.414-0.586-0.586-0.861-0.586-1.414c0-0.325 0.077-0.631 0.214-0.902zM16.301 6.056c-0.009-0.017-0.018-0.034-0.028-0.051s-0.020-0.034-0.031-0.050c-0.154-0.283-0.242-0.608-0.242-0.955 0-0.553 0.223-1.051 0.586-1.414s0.861-0.586 1.414-0.586 1.051 0.223 1.414 0.586 0.586 0.861 0.586 1.414-0.223 1.051-0.586 1.414-0.861 0.586-1.414 0.586-1.051-0.223-1.414-0.586c-0.108-0.108-0.204-0.228-0.285-0.358zM7.699 10.944c0.009 0.017 0.018 0.034 0.028 0.051s0.020 0.034 0.031 0.050c0.154 0.283 0.242 0.608 0.242 0.955s-0.088 0.672-0.243 0.956c-0.011 0.016-0.021 0.033-0.031 0.050s-0.019 0.033-0.027 0.050c-0.081 0.13-0.177 0.25-0.285 0.358-0.363 0.363-0.861 0.586-1.414 0.586s-1.051-0.223-1.414-0.586-0.586-0.861-0.586-1.414 0.223-1.051 0.586-1.414 0.861-0.586 1.414-0.586 1.051 0.223 1.414 0.586c0.108 0.108 0.204 0.228 0.285 0.358zM14.15 6.088l-5.308 3.097c-0.004-0.005-0.009-0.009-0.014-0.014-0.722-0.722-1.724-1.171-2.828-1.171s-2.106 0.449-2.828 1.172-1.172 1.724-1.172 2.828 0.449 2.106 1.172 2.828 1.724 1.172 2.828 1.172 2.106-0.449 2.828-1.172c0.005-0.005 0.009-0.009 0.014-0.014l5.309 3.094c-0.098 0.347-0.151 0.714-0.151 1.092 0 1.104 0.449 2.106 1.172 2.828s1.724 1.172 2.828 1.172 2.106-0.449 2.828-1.172 1.172-1.724 1.172-2.828-0.449-2.106-1.172-2.828-1.724-1.172-2.828-1.172-2.106 0.449-2.828 1.172c-0.003 0.003-0.007 0.007-0.010 0.010l-5.312-3.095c0.098-0.346 0.15-0.71 0.15-1.087s-0.052-0.742-0.15-1.088l5.308-3.098c0.004 0.005 0.009 0.009 0.014 0.014 0.722 0.723 1.724 1.172 2.828 1.172s2.106-0.449 2.828-1.172 1.172-1.724 1.172-2.828-0.449-2.106-1.172-2.828-1.724-1.172-2.828-1.172-2.106 0.449-2.828 1.172-1.172 1.724-1.172 2.828c0 0.377 0.052 0.742 0.15 1.088z"></path>
</symbol>
<symbol id="icon-sun1" viewBox="0 0 24 24">
<path d="M18 12c0-1.657-0.673-3.158-1.757-4.243s-2.586-1.757-4.243-1.757-3.158 0.673-4.243 1.757-1.757 2.586-1.757 4.243 0.673 3.158 1.757 4.243 2.586 1.757 4.243 1.757 3.158-0.673 4.243-1.757 1.757-2.586 1.757-4.243zM16 12c0 1.105-0.447 2.103-1.172 2.828s-1.723 1.172-2.828 1.172-2.103-0.447-2.828-1.172-1.172-1.723-1.172-2.828 0.447-2.103 1.172-2.828 1.723-1.172 2.828-1.172 2.103 0.447 2.828 1.172 1.172 1.723 1.172 2.828zM11 1v2c0 0.552 0.448 1 1 1s1-0.448 1-1v-2c0-0.552-0.448-1-1-1s-1 0.448-1 1zM11 21v2c0 0.552 0.448 1 1 1s1-0.448 1-1v-2c0-0.552-0.448-1-1-1s-1 0.448-1 1zM3.513 4.927l1.42 1.42c0.391 0.391 1.024 0.391 1.414 0s0.391-1.024 0-1.414l-1.42-1.42c-0.391-0.391-1.024-0.391-1.414 0s-0.391 1.024 0 1.414zM17.653 19.067l1.42 1.42c0.391 0.391 1.024 0.391 1.414 0s0.391-1.024 0-1.414l-1.42-1.42c-0.391-0.391-1.024-0.391-1.414 0s-0.391 1.024 0 1.414zM1 13h2c0.552 0 1-0.448 1-1s-0.448-1-1-1h-2c-0.552 0-1 0.448-1 1s0.448 1 1 1zM21 13h2c0.552 0 1-0.448 1-1s-0.448-1-1-1h-2c-0.552 0-1 0.448-1 1s0.448 1 1 1zM4.927 20.487l1.42-1.42c0.391-0.391 0.391-1.024 0-1.414s-1.024-0.391-1.414 0l-1.42 1.42c-0.391 0.391-0.391 1.024 0 1.414s1.024 0.391 1.414 0zM19.067 6.347l1.42-1.42c0.391-0.391 0.391-1.024 0-1.414s-1.024-0.391-1.414 0l-1.42 1.42c-0.391 0.391-0.391 1.024 0 1.414s1.024 0.391 1.414 0z"></path>
</symbol>
<symbol id="icon-tag" viewBox="0 0 24 24">
<path d="M21.297 14.117c0.583-0.586 0.874-1.352 0.874-2.115 0.001-0.764-0.29-1.532-0.874-2.12l-8.59-8.59c-0.181-0.18-0.431-0.292-0.707-0.292h-10c-0.552 0-1 0.448-1 1v10c0 0.256 0.098 0.512 0.293 0.708l8.592 8.582c0.586 0.585 1.356 0.878 2.122 0.877s1.536-0.294 2.12-0.879zM19.883 12.703l-7.17 7.17c-0.196 0.196-0.45 0.294-0.707 0.294s-0.512-0.097-0.707-0.292l-8.299-8.29v-8.585h8.586l8.297 8.297c0.192 0.193 0.289 0.447 0.289 0.704s-0.097 0.509-0.289 0.702zM7 8c0.552 0 1-0.448 1-1s-0.448-1-1-1-1 0.448-1 1 0.448 1 1 1z"></path>
</symbol>
<symbol id="icon-thumbs-up1" viewBox="0 0 24 24">
<path d="M13 9c0 0.552 0.448 1 1 1h5.679c0.065 0.002 0.153 0.011 0.153 0.011 0.273 0.041 0.502 0.188 0.655 0.396s0.225 0.47 0.184 0.742l-1.38 8.998c-0.037 0.239-0.156 0.448-0.325 0.6-0.18 0.161-0.415 0.256-0.686 0.253h-10.28v-9.788l3.608-8.118c0.307 0.098 0.582 0.268 0.806 0.492 0.363 0.363 0.586 0.861 0.586 1.414zM15 8v-3c0-1.104-0.449-2.106-1.172-2.828s-1.724-1.172-2.828-1.172c-0.405 0-0.754 0.241-0.914 0.594l-4 9c-0.060 0.134-0.087 0.275-0.086 0.406v11c0 0.552 0.448 1 1 1h11.28c0.767 0.009 1.482-0.281 2.021-0.763 0.505-0.452 0.857-1.076 0.967-1.783l1.38-9.002c0.125-0.82-0.096-1.614-0.55-2.231s-1.147-1.063-1.965-1.187c-0.165-0.025-0.333-0.037-0.492-0.034zM7 21h-3c-0.276 0-0.525-0.111-0.707-0.293s-0.293-0.431-0.293-0.707v-7c0-0.276 0.111-0.525 0.293-0.707s0.431-0.293 0.707-0.293h3c0.552 0 1-0.448 1-1s-0.448-1-1-1h-3c-0.828 0-1.58 0.337-2.121 0.879s-0.879 1.293-0.879 2.121v7c0 0.828 0.337 1.58 0.879 2.121s1.293 0.879 2.121 0.879h3c0.552 0 1-0.448 1-1s-0.448-1-1-1z"></path>
</symbol>
<symbol id="icon-twitter" viewBox="0 0 24 24">
<path d="M20.833 5.262c-0.186 0.242-0.391 0.475-0.616 0.696-0.233 0.232-0.347 0.567-0.278 0.908 0.037 0.182 0.060 0.404 0.061 0.634 0 5.256-2.429 8.971-5.81 10.898-2.647 1.509-5.938 1.955-9.222 1.12 1.245-0.361 2.46-0.921 3.593-1.69 0.147-0.099 0.273-0.243 0.352-0.421 0.224-0.505-0.003-1.096-0.508-1.32-2.774-1.233-4.13-2.931-4.769-4.593-0.417-1.084-0.546-2.198-0.52-3.227 0.021-0.811 0.138-1.56 0.278-2.182 0.394 0.343 0.803 0.706 1.235 1.038 2.051 1.577 4.624 2.479 7.395 2.407 0.543-0.015 0.976-0.457 0.976-1v-1.011c-0.002-0.179 0.009-0.357 0.034-0.533 0.113-0.806 0.504-1.569 1.162-2.141 0.725-0.631 1.636-0.908 2.526-0.846s1.753 0.463 2.384 1.188c0.252 0.286 0.649 0.416 1.033 0.304 0.231-0.067 0.463-0.143 0.695-0.228zM22.424 2.183c-0.74 0.522-1.523 0.926-2.287 1.205-0.931-0.836-2.091-1.302-3.276-1.385-1.398-0.097-2.836 0.339-3.977 1.332-1.036 0.901-1.652 2.108-1.83 3.372-0.037 0.265-0.055 0.532-0.054 0.8-1.922-0.142-3.693-0.85-5.15-1.97-0.775-0.596-1.462-1.309-2.034-2.116-0.32-0.45-0.944-0.557-1.394-0.237-0.154 0.109-0.267 0.253-0.335 0.409 0 0-0.132 0.299-0.285 0.76-0.112 0.337-0.241 0.775-0.357 1.29-0.163 0.722-0.302 1.602-0.326 2.571-0.031 1.227 0.12 2.612 0.652 3.996 0.683 1.775 1.966 3.478 4.147 4.823-1.569 0.726-3.245 1.039-4.873 0.967-0.552-0.024-1.019 0.403-1.043 0.955-0.017 0.389 0.19 0.736 0.513 0.918 4.905 2.725 10.426 2.678 14.666 0.261 4.040-2.301 6.819-6.7 6.819-12.634-0.001-0.167-0.008-0.33-0.023-0.489 1.006-1.115 1.676-2.429 1.996-3.781 0.127-0.537-0.206-1.076-0.743-1.203-0.29-0.069-0.58-0.003-0.807 0.156z"></path>
</symbol>
<symbol id="icon-youtube" viewBox="0 0 24 24">
<path d="M21.563 6.637c0.287 1.529 0.448 3.295 0.437 5.125 0.019 1.528-0.123 3.267-0.437 5.021-0.057 0.208-0.15 0.403-0.272 0.575-0.227 0.321-0.558 0.565-0.949 0.675-0.604 0.161-2.156 0.275-3.877 0.341-2.23 0.086-4.465 0.086-4.465 0.086s-2.235 0-4.465-0.085c-1.721-0.066-3.273-0.179-3.866-0.338-0.205-0.057-0.396-0.149-0.566-0.268-0.311-0.22-0.55-0.536-0.67-0.923-0.285-1.526-0.444-3.286-0.433-5.11-0.021-1.54 0.121-3.292 0.437-5.060 0.057-0.208 0.15-0.403 0.272-0.575 0.227-0.321 0.558-0.565 0.949-0.675 0.604-0.161 2.156-0.275 3.877-0.341 2.23-0.085 4.465-0.085 4.465-0.085s2.235 0 4.466 0.078c1.719 0.060 3.282 0.163 3.856 0.303 0.219 0.063 0.421 0.165 0.598 0.299 0.307 0.232 0.538 0.561 0.643 0.958zM23.51 6.177c-0.217-0.866-0.718-1.59-1.383-2.093-0.373-0.282-0.796-0.494-1.249-0.625-0.898-0.22-2.696-0.323-4.342-0.38-2.267-0.079-4.536-0.079-4.536-0.079s-2.272 0-4.541 0.087c-1.642 0.063-3.45 0.175-4.317 0.407-0.874 0.247-1.581 0.77-2.064 1.45-0.27 0.381-0.469 0.811-0.587 1.268-0.006 0.024-0.011 0.049-0.015 0.071-0.343 1.898-0.499 3.793-0.476 5.481-0.012 1.924 0.161 3.831 0.477 5.502 0.006 0.031 0.013 0.062 0.021 0.088 0.245 0.86 0.77 1.567 1.451 2.048 0.357 0.252 0.757 0.443 1.182 0.561 0.879 0.235 2.686 0.347 4.328 0.41 2.269 0.087 4.541 0.087 4.541 0.087s2.272 0 4.541-0.087c1.642-0.063 3.449-0.175 4.317-0.407 0.873-0.247 1.581-0.77 2.063-1.45 0.27-0.381 0.47-0.811 0.587-1.267 0.006-0.025 0.012-0.050 0.015-0.071 0.34-1.884 0.496-3.765 0.476-5.44 0.012-1.925-0.161-3.833-0.477-5.504-0.004-0.020-0.008-0.040-0.012-0.057zM10.75 13.301v-3.102l2.727 1.551zM10.244 15.889l5.75-3.27c0.48-0.273 0.648-0.884 0.375-1.364-0.093-0.164-0.226-0.292-0.375-0.375l-5.75-3.27c-0.48-0.273-1.091-0.105-1.364 0.375-0.090 0.158-0.132 0.33-0.131 0.494v6.54c0 0.552 0.448 1 1 1 0.182 0 0.352-0.049 0.494-0.131z"></path>
</symbol>
<symbol id="icon-cog" viewBox="0 0 24 24">
<path d="M9.387 17.548l0.371 1.482c0.133 0.533 0.692 0.97 1.242 0.97h1c0.55 0 1.109-0.437 1.242-0.97l0.371-1.482c0.133-0.533 0.675-0.846 1.203-0.694l1.467 0.42c0.529 0.151 1.188-0.114 1.462-0.591l0.5-0.867c0.274-0.477 0.177-1.179-0.219-1.562l-1.098-1.061c-0.396-0.383-0.396-1.008 0.001-1.39l1.096-1.061c0.396-0.382 0.494-1.084 0.22-1.561l-0.501-0.867c-0.275-0.477-0.933-0.742-1.461-0.591l-1.467 0.42c-0.529 0.151-1.070-0.161-1.204-0.694l-0.37-1.48c-0.133-0.532-0.692-0.969-1.242-0.969h-1c-0.55 0-1.109 0.437-1.242 0.97l-0.37 1.48c-0.134 0.533-0.675 0.846-1.204 0.695l-1.467-0.42c-0.529-0.152-1.188 0.114-1.462 0.59l-0.5 0.867c-0.274 0.477-0.177 1.179 0.22 1.562l1.096 1.059c0.395 0.383 0.395 1.008 0 1.391l-1.098 1.061c-0.395 0.383-0.494 1.085-0.219 1.562l0.501 0.867c0.274 0.477 0.933 0.742 1.462 0.591l1.467-0.42c0.528-0.153 1.070 0.16 1.203 0.693zM11.5 10.5c1.104 0 2 0.895 2 2s-0.896 2-2 2-2-0.896-2-2c0-1.105 0.896-2 2-2z"></path>
</symbol>
<symbol id="icon-sort-alphabetically" viewBox="0 0 24 24">
<path d="M10.895 16.553l-4-8c-0.339-0.678-1.45-0.678-1.789 0l-4 8c-0.247 0.494-0.047 1.095 0.447 1.342 0.495 0.248 1.095 0.046 1.342-0.447l0.723-1.448h4.764l0.724 1.447c0.175 0.351 0.528 0.553 0.895 0.553 0.15 0 0.303-0.034 0.446-0.105 0.494-0.248 0.695-0.848 0.448-1.342zM4.618 14l1.382-2.764 1.382 2.764h-2.764z"></path>
<path d="M22 18h-6c-0.379 0-0.725-0.214-0.895-0.553s-0.132-0.744 0.095-1.047l4.8-6.4h-4c-0.552 0-1-0.448-1-1s0.448-1 1-1h6c0.379 0 0.725 0.214 0.895 0.553s0.132 0.744-0.095 1.047l-4.8 6.4h4c0.552 0 1 0.448 1 1s-0.448 1-1 1z"></path>
<path d="M14 14h-2c-0.552 0-1-0.448-1-1s0.448-1 1-1h2c0.552 0 1 0.448 1 1s-0.448 1-1 1z"></path>
</symbol>
<symbol id="icon-spanner" viewBox="0 0 24 24">
<path d="M20.285 7.119c-0.050-0.168-0.184-0.299-0.354-0.344-0.172-0.047-0.352 0.003-0.477 0.126l-2.616 2.557-1.914-0.383-0.381-1.907 2.645-2.585c0.126-0.123 0.178-0.303 0.137-0.474s-0.168-0.308-0.336-0.361c-0.531-0.166-1.018-0.248-1.489-0.248-2.757 0-5 2.243-5 5 0 0.323 0.038 0.65 0.118 1.010-0.562 0.463-1.096 0.862-1.701 1.314-0.865 0.646-1.845 1.377-3.182 2.506-0.785 0.686-1.235 1.659-1.235 2.67 0 1.93 1.57 3.5 3.5 3.5 1.021 0 1.993-0.456 2.662-1.25 1.149-1.347 1.891-2.336 2.544-3.209 0.442-0.591 0.832-1.111 1.283-1.66 0.36 0.081 0.688 0.119 1.011 0.119 2.757 0 5-2.243 5-5 0-0.437-0.068-0.875-0.215-1.381zM8 17c-0.553 0-1-0.447-1-1s0.447-1 1-1 1 0.447 1 1-0.447 1-1 1z"></path>
</symbol>
<symbol id="icon-social-facebook" viewBox="0 0 24 24">
<path d="M13 10h3v3h-3v7h-3v-7h-3v-3h3v-1.255c0-1.189 0.374-2.691 1.118-3.512 0.744-0.823 1.673-1.233 2.786-1.233h2.096v3h-2.1c-0.498 0-0.9 0.402-0.9 0.899v2.101z"></path>
</symbol>
<symbol id="icon-social-pinterest" viewBox="0 0 24 24">
<path d="M12.486 4.771c-4.23 0-6.363 3.033-6.363 5.562 0 1.533 0.581 2.894 1.823 3.401 0.205 0.084 0.387 0.004 0.446-0.221 0.041-0.157 0.138-0.553 0.182-0.717 0.061-0.221 0.037-0.3-0.127-0.495-0.359-0.422-0.588-0.972-0.588-1.747 0-2.25 1.683-4.264 4.384-4.264 2.392 0 3.706 1.463 3.706 3.412 0 2.568-1.137 4.734-2.824 4.734-0.932 0-1.629-0.77-1.405-1.715 0.268-1.13 0.786-2.347 0.786-3.16 0-0.729-0.392-1.336-1.2-1.336-0.952 0-1.718 0.984-1.718 2.304 0 0.841 0.286 1.409 0.286 1.409s-0.976 4.129-1.146 4.852c-0.34 1.44-0.051 3.206-0.025 3.385 0.013 0.104 0.149 0.131 0.21 0.051 0.088-0.115 1.223-1.517 1.607-2.915 0.111-0.396 0.627-2.445 0.627-2.445 0.311 0.589 1.213 1.108 2.175 1.108 2.863 0 4.804-2.608 4.804-6.103-0.003-2.64-2.24-5.1-5.64-5.1z"></path>
</symbol>
<symbol id="icon-group-outline" viewBox="0 0 24 24">
<path d="M12 14c2.764 0 5-2.238 5-5s-2.236-5-5-5-5 2.238-5 5 2.236 5 5 5zM12 6c1.654 0 3 1.346 3 3s-1.346 3-3 3-3-1.346-3-3 1.346-3 3-3z"></path>
<path d="M20 15c1.381 0 2.5-1.117 2.5-2.5 0-1.381-1.119-2.5-2.5-2.5s-2.5 1.119-2.5 2.5c0 1.383 1.118 2.5 2.5 2.5zM20 11c0.827 0 1.5 0.673 1.5 1.5s-0.673 1.5-1.5 1.5-1.5-0.673-1.5-1.5 0.673-1.5 1.5-1.5z"></path>
<path d="M20 15.59c-1.331 0-2.332 0.406-2.917 0.969-1.115-0.918-2.878-1.559-5.083-1.559-2.266 0-3.995 0.648-5.092 1.564-0.596-0.565-1.608-0.975-2.908-0.975-2.188 0-3.5 1.091-3.5 2.183 0 0.545 1.312 1.092 3.5 1.092 0.604 0 1.146-0.051 1.623-0.133-0.010 0.090-0.040 0.18-0.040 0.27 0 1 2.405 2 6.417 2 3.762 0 6.417-1 6.417-2 0-0.085-0.011-0.17-0.021-0.255 0.463 0.073 0.996 0.118 1.604 0.118 2.051 0 3.5-0.547 3.5-1.092 0-1.092-1.373-2.182-3.5-2.182zM4 17.863c-1.309 0-2.068-0.207-2.417-0.354 0.239-0.405 1.003-0.92 2.417-0.92 1.107 0 1.837 0.351 2.208 0.706-0.084 0.114-0.169 0.227-0.235 0.344-0.452 0.119-1.108 0.224-1.973 0.224zM12 19c-2.163 0-3.501-0.312-4.184-0.561 0.521-0.678 1.918-1.439 4.184-1.439 2.169 0 3.59 0.761 4.148 1.425-0.755 0.27-2.162 0.575-4.148 0.575zM20 17.863c-0.914 0-1.546-0.103-1.973-0.213-0.072-0.127-0.155-0.252-0.248-0.375 0.356-0.345 1.071-0.685 2.221-0.685 1.324 0 2.141 0.501 2.404 0.911-0.39 0.163-1.205 0.362-2.404 0.362z"></path>
<path d="M4 15c1.381 0 2.5-1.119 2.5-2.5 0-1.379-1.119-2.5-2.5-2.5s-2.5 1.121-2.5 2.5c0 1.381 1.118 2.5 2.5 2.5zM4 11c0.827 0 1.5 0.673 1.5 1.5s-0.673 1.5-1.5 1.5-1.5-0.673-1.5-1.5 0.673-1.5 1.5-1.5z"></path>
</symbol>
<symbol id="icon-stopwatch1" viewBox="0 0 24 24">
<path d="M19.414 8.902c0.104-0.048 0.206-0.108 0.293-0.195l0.5-0.5c0.391-0.391 0.391-1.023 0-1.414s-1.023-0.391-1.414 0l-0.5 0.5c-0.051 0.051-0.077 0.115-0.115 0.173-1.387-1.312-3.188-2.19-5.189-2.41 0.001-0.019 0.011-0.036 0.011-0.056v-1h1c0.55 0 1-0.45 1-1s-0.45-1-1-1h-4c-0.55 0-1 0.45-1 1s0.45 1 1 1h1v1c0 0.020 0.010 0.037 0.012 0.057-4.506 0.492-8.012 4.307-8.012 8.943 0 4.971 4.029 9 9 9s9-4.029 9-9c0-1.894-0.588-3.648-1.586-5.098zM12 21c-3.859 0-7-3.14-7-7s3.141-7 7-7 7 3.14 7 7-3.141 7-7 7z"></path>
<path d="M13 13v-2c0-0.55-0.45-1-1-1s-1 0.45-1 1v3c0 0.55 0.45 1 1 1h3c0.55 0 1-0.45 1-1s-0.45-1-1-1h-2z"></path>
<path d="M12 8c-3.312 0-6 2.688-6 6s2.688 6 6 6 6-2.688 6-6-2.688-6-6-6zM12 19c-2.757 0-5-2.243-5-5s2.243-5 5-5 5 2.243 5 5-2.243 5-5 5z"></path>
</symbol>
<symbol id="icon-contacts" viewBox="0 0 24 24">
<path d="M19 3h-11c-1.654 0-3 1.346-3 3v1h-1c-0.553 0-1 0.448-1 1s0.447 1 1 1h1v2h-1c-0.553 0-1 0.448-1 1s0.447 1 1 1h1v2h-1c-0.553 0-1 0.448-1 1s0.447 1 1 1h1v1c0 1.654 1.346 3 3 3h11c1.654 0 3-1.346 3-3v-12c0-1.654-1.346-3-3-3zM7 6c0-0.551 0.449-1 1-1v2h-1v-1zM7 9h1v2h-1v-2zM7 13h1v2h-1v-2zM7 18v-1h1v2c-0.551 0-1-0.449-1-1zM20 18c0 0.551-0.449 1-1 1h-10v-14h10c0.551 0 1 0.449 1 1v12z"></path>
<path d="M16 10.5c0 1.105-0.895 2-2 2s-2-0.895-2-2c0-1.105 0.895-2 2-2s2 0.895 2 2z"></path>
<path d="M14 13.356c-1.562 0-2.5 0.715-2.5 1.429 0 0.357 0.938 0.715 2.5 0.715 1.466 0 2.5-0.357 2.5-0.715 0-0.714-0.98-1.429-2.5-1.429z"></path>
</symbol>
<symbol id="icon-social-pinterest-circular" viewBox="0 0 24 24">
<path d="M12 21c-4.963 0-9-4.037-9-9s4.037-9 9-9 9 4.037 9 9-4.037 9-9 9zM12 5c-3.859 0-7 3.141-7 7s3.141 7 7 7 7-3.141 7-7-3.141-7-7-7z"></path>
<path d="M12.335 8c-2.468 0-3.712 1.77-3.712 3.244 0 0.895 0.338 1.688 1.063 1.984 0.119 0.049 0.226 0.002 0.261-0.129 0.023-0.092 0.080-0.322 0.105-0.418 0.035-0.129 0.021-0.175-0.074-0.289-0.209-0.246-0.344-0.566-0.344-1.019 0-1.312 0.982-2.487 2.558-2.487 1.396 0 2.161 0.853 2.161 1.99 0 1.498-0.662 2.762-1.646 2.762-0.543 0-0.95-0.449-0.82-1.001 0.156-0.658 0.459-1.368 0.459-1.843 0-0.426-0.229-0.779-0.7-0.779-0.556 0-1.002 0.574-1.002 1.344 0 0.49 0.166 0.822 0.166 0.822s-0.569 2.408-0.669 2.83c-0.198 0.84-0.029 1.87-0.015 1.974 0.008 0.062 0.087 0.077 0.123 0.030 0.052-0.067 0.713-0.885 0.938-1.7 0.064-0.23 0.366-1.427 0.366-1.427 0.18 0.344 0.707 0.646 1.268 0.646 1.67 0 2.803-1.521 2.803-3.56-0.001-1.538-1.306-2.974-3.289-2.974z"></path>
</symbol>
<symbol id="icon-social-facebook-circular" viewBox="0 0 24 24">
<path d="M18.354 5.624c-1.75-1.741-3.888-2.624-6.354-2.624-2.489 0-4.633 0.884-6.373 2.625-1.743 1.741-2.627 3.887-2.627 6.375 0 2.465 0.883 4.603 2.624 6.354 1.741 1.756 3.886 2.646 6.376 2.646 2.467 0 4.605-0.89 6.356-2.643 1.755-1.753 2.644-3.892 2.644-6.357 0-2.488-0.89-4.634-2.646-6.376zM16.942 16.943c-1.137 1.139-2.436 1.788-3.942 1.985v-4.928h2v-2h-2v-1.4c0-0.331 0.269-0.6 0.601-0.6h1.399v-2h-1.397c-0.742 0-1.361 0.273-1.857 0.822-0.496 0.547-0.746 1.215-0.746 2.008v1.17h-2v2h2v4.93c-1.522-0.195-2.826-0.845-3.957-1.984-1.375-1.384-2.043-3.002-2.043-4.946 0-1.966 0.667-3.588 2.042-4.96 1.37-1.373 2.992-2.040 4.958-2.040 1.945 0 3.562 0.668 4.945 2.043 1.383 1.372 2.055 2.994 2.055 4.957 0 1.941-0.673 3.559-2.058 4.943z"></path>
</symbol>
<symbol id="icon-mail_outline" viewBox="0 0 24 24">
<path d="M12 11.016l8.016-5.016h-16.031zM20.016 18v-9.984l-8.016 4.969-8.016-4.969v9.984h16.031zM20.016 3.984q0.797 0 1.383 0.609t0.586 1.406v12q0 0.797-0.586 1.406t-1.383 0.609h-16.031q-0.797 0-1.383-0.609t-0.586-1.406v-12q0-0.797 0.586-1.406t1.383-0.609h16.031z"></path>
</symbol>
<symbol id="icon-sentiment_satisfied_alt" viewBox="0 0 24 24">
<path d="M12 17.484q-1.734 0-3.117-0.961t-1.992-2.508h1.641q1.172 1.969 3.469 1.969t3.469-1.969h1.641q-0.609 1.547-1.992 2.508t-3.117 0.961zM12 20.016q3.281 0 5.648-2.367t2.367-5.648-2.367-5.648-5.648-2.367-5.648 2.367-2.367 5.648 2.367 5.648 5.648 2.367zM12 2.016q4.125 0 7.055 2.93t2.93 7.055-2.93 7.055-7.055 2.93-7.055-2.93-2.93-7.055 2.93-7.055 7.055-2.93zM8.484 11.016q-0.609 0-1.055-0.445t-0.445-1.055 0.445-1.055 1.055-0.445 1.055 0.445 0.445 1.055-0.445 1.055-1.055 0.445zM15.516 11.016q-0.609 0-1.055-0.445t-0.445-1.055 0.445-1.055 1.055-0.445 1.055 0.445 0.445 1.055-0.445 1.055-1.055 0.445z"></path>
</symbol>
<symbol id="icon-block" viewBox="0 0 24 24">
<path d="M12 20.016q3.281 0 5.648-2.367t2.367-5.648q0-1.125-0.492-2.578t-1.195-2.344l-11.25 11.25q2.109 1.688 4.922 1.688zM3.984 12q0 1.125 0.492 2.578t1.195 2.344l11.25-11.25q-2.109-1.688-4.922-1.688-3.281 0-5.648 2.367t-2.367 5.648zM12 2.016q4.125 0 7.055 2.93t2.93 7.055-2.93 7.055-7.055 2.93-7.055-2.93-2.93-7.055 2.93-7.055 7.055-2.93z"></path>
</symbol>
<symbol id="icon-clear" viewBox="0 0 24 24">
<path d="M18.984 6.422l-5.578 5.578 5.578 5.578-1.406 1.406-5.578-5.578-5.578 5.578-1.406-1.406 5.578-5.578-5.578-5.578 1.406-1.406 5.578 5.578 5.578-5.578z"></path>
</symbol>
<symbol id="icon-keyboard_arrow_left" viewBox="0 0 24 24">
<path d="M15.422 16.594l-1.406 1.406-6-6 6-6 1.406 1.406-4.594 4.594z"></path>
</symbol>
<symbol id="icon-keyboard_arrow_right" viewBox="0 0 24 24">
<path d="M8.578 16.594l4.594-4.594-4.594-4.594 1.406-1.406 6 6-6 6z"></path>
</symbol>
<symbol id="icon-brightness_2" viewBox="0 0 24 24">
<path d="M9.984 2.016q4.172 0 7.102 2.93t2.93 7.055-2.93 7.055-7.102 2.93q-2.719 0-4.969-1.313 2.297-1.313 3.633-3.633t1.336-5.039-1.336-5.039-3.633-3.633q2.25-1.313 4.969-1.313z"></path>
</symbol>
<symbol id="icon-local_offer" viewBox="0 0 24 24">
<path d="M5.484 6.984q0.609 0 1.055-0.445t0.445-1.055-0.445-1.055-1.055-0.445-1.055 0.445-0.445 1.055 0.445 1.055 1.055 0.445zM21.422 11.578q0.563 0.563 0.563 1.406t-0.563 1.406l-7.031 7.031q-0.563 0.563-1.406 0.563t-1.406-0.563l-9-9q-0.563-0.563-0.563-1.406v-7.031q0-0.797 0.586-1.383t1.383-0.586h7.031q0.844 0 1.406 0.563z"></path>
</symbol>
<symbol id="icon-event_note" viewBox="0 0 24 24">
<path d="M14.016 14.016v1.969h-7.031v-1.969h7.031zM18.984 18.984v-10.969h-13.969v10.969h13.969zM18.984 3q0.797 0 1.406 0.609t0.609 1.406v13.969q0 0.797-0.609 1.406t-1.406 0.609h-13.969q-0.844 0-1.43-0.586t-0.586-1.43v-13.969q0-0.797 0.586-1.406t1.43-0.609h0.984v-2.016h2.016v2.016h7.969v-2.016h2.016v2.016h0.984zM17.016 9.984v2.016h-10.031v-2.016h10.031z"></path>
</symbol>
<symbol id="icon-school" viewBox="0 0 24 24">
<path d="M12 3l11.016 6v8.016h-2.016v-6.938l-9 4.922-11.016-6zM5.016 13.172l6.984 3.844 6.984-3.844v4.031l-6.984 3.797-6.984-3.797v-4.031z"></path>
</symbol>
<symbol id="icon-share1" viewBox="0 0 24 24">
<path d="M18 16.078q1.219 0 2.063 0.867t0.844 2.039q0 1.219-0.867 2.086t-2.039 0.867-2.039-0.867-0.867-2.086q0-0.469 0.047-0.656l-7.078-4.125q-0.891 0.797-2.063 0.797-1.219 0-2.109-0.891t-0.891-2.109 0.891-2.109 2.109-0.891q1.172 0 2.063 0.797l7.031-4.078q-0.094-0.469-0.094-0.703 0-1.219 0.891-2.109t2.109-0.891 2.109 0.891 0.891 2.109-0.891 2.109-2.109 0.891q-1.125 0-2.063-0.844l-7.031 4.125q0.094 0.469 0.094 0.703t-0.094 0.703l7.125 4.125q0.844-0.75 1.969-0.75z"></path>
</symbol>
<symbol id="icon-thumb_down_alt" viewBox="0 0 24 24">
<path d="M2.156 11.109l2.672-6.141q0.609-0.984 1.734-0.984h8.109q0.984 0 1.664 0.68t0.68 1.664v7.828q0 0.844-0.609 1.453l-6.422 6.375-0.422-0.469q-0.563-0.563-0.891-1.219-0.141-0.328-0.094-0.656l0.938-4.641h-5.531q-0.797 0-1.383-0.609t-0.586-1.406v-1.078q0-0.469 0.141-0.797zM21.984 3.984v11.016h-1.969q-0.422 0-0.727-0.281t-0.305-0.703v-9q0-0.422 0.305-0.727t0.727-0.305h1.969z"></path>
</symbol>
<symbol id="icon-thumb_up_alt" viewBox="0 0 24 24">
<path d="M21.844 12.891l-2.672 6.141q-0.609 0.984-1.734 0.984h-8.109q-0.938 0-1.641-0.703t-0.703-1.641v-7.828q0-0.844 0.609-1.453l6.422-6.375 0.422 0.469q0.563 0.563 0.891 1.219 0.141 0.328 0.094 0.656l-0.938 4.641h5.531q0.797 0 1.383 0.609t0.586 1.406v1.078q0 0.422-0.141 0.797zM2.016 20.016v-11.016h1.969q0.422 0 0.727 0.281t0.305 0.703v9q0 0.422-0.305 0.727t-0.727 0.305h-1.969z"></path>
</symbol>
<symbol id="icon-favorite" viewBox="0 0 24 24">
<path d="M12 21.328l-1.453-1.313q-2.484-2.25-3.609-3.328t-2.508-2.672-1.898-2.883-0.516-2.648q0-2.297 1.57-3.891t3.914-1.594q2.719 0 4.5 2.109 1.781-2.109 4.5-2.109 2.344 0 3.914 1.594t1.57 3.891q0 1.828-1.219 3.797t-2.648 3.422-4.664 4.359z"></path>
</symbol>
<symbol id="icon-favorite_outline" viewBox="0 0 24 24">
<path d="M12.094 18.563q2.25-2.016 3.328-3.047t2.344-2.438 1.758-2.484 0.492-2.109q0-1.5-1.008-2.484t-2.508-0.984q-1.172 0-2.18 0.656t-1.383 1.688h-1.875q-0.375-1.031-1.383-1.688t-2.18-0.656q-1.5 0-2.508 0.984t-1.008 2.484q0 1.031 0.492 2.109t1.758 2.484 2.344 2.438 3.328 3.047l0.094 0.094zM16.5 3q2.344 0 3.914 1.594t1.57 3.891q0 1.359-0.516 2.648t-1.898 2.883-2.508 2.672-3.609 3.328l-1.453 1.313-1.453-1.266q-3.234-2.906-4.664-4.359t-2.648-3.422-1.219-3.797q0-2.297 1.57-3.891t3.914-1.594q2.719 0 4.5 2.109 1.781-2.109 4.5-2.109z"></path>
</symbol>
<symbol id="icon-home" viewBox="0 0 24 24">
<path d="M9.984 20.016h-4.969v-8.016h-3l9.984-9 9.984 9h-3v8.016h-4.969v-6h-4.031v6z"></path>
</symbol>
<symbol id="icon-search2" viewBox="0 0 24 24">
<path d="M9.516 14.016q1.875 0 3.188-1.313t1.313-3.188-1.313-3.188-3.188-1.313-3.188 1.313-1.313 3.188 1.313 3.188 3.188 1.313zM15.516 14.016l4.969 4.969-1.5 1.5-4.969-4.969v-0.797l-0.281-0.281q-1.781 1.547-4.219 1.547-2.719 0-4.617-1.875t-1.898-4.594 1.898-4.617 4.617-1.898 4.594 1.898 1.875 4.617q0 0.984-0.469 2.227t-1.078 1.992l0.281 0.281h0.797z"></path>
</symbol>
</defs>
</svg>
